<?xml version="1.0" encoding="UTF-8"?>
<svg viewBox="0 0 800 800" version="1.1" xmlns="http://www.w3.org/2000/svg" xmlns:xlink="http://www.w3.org/1999/xlink">
    <title>logo</title>
    <g id="logo" stroke="none" stroke-width="1" fill="none" fill-rule="evenodd">
        <path
            d="M198.987863,86.0445892 L601.012137,86.0445892 C663.388985,86.0445892 713.955411,136.611015 713.955411,198.987863 L713.955411,601.012137 C713.955411,663.388985 663.388985,713.955411 601.012137,713.955411 L198.987863,713.955411 C136.611015,713.955411 86.0445892,663.388985 86.0445892,601.012137 L86.0445892,198.987863 C86.0445892,136.611015 136.611015,86.0445892 198.987863,86.0445892 Z"
            id="Rectangle" fill="#FAFFF6"
            transform="translate(400.000000, 400.000000) rotate(-45.000000) translate(-400.000000, -400.000000) ">
        </path>
        <g id="Wie-is-de-trol-?" transform="translate(143.499108, 162.072295)" fill="#2E2E2E" fill-rule="nonzero">
            <path
                d="M106.734516,15.9847471 C105.378234,17.3410286 103.101619,18.0191694 99.9046692,18.0191694 C96.7077198,18.0191694 94.406885,17.3168093 93.0021648,15.9120891 C91.5974446,14.5073689 90.8950845,12.2065341 90.8950845,9.00958471 C90.8950845,5.8126353 91.5974446,3.51180049 93.0021648,2.1070803 C94.406885,0.702360098 96.7077198,0 99.9046692,0 C103.101619,0 105.402453,0.702360098 106.807174,2.1070803 C108.211894,3.51180049 108.914254,5.8126353 108.914254,9.00958471 C108.914254,12.2065341 108.187674,14.5315882 106.734516,15.9847471 Z M176.631455,44.0307124 C178.084614,42.5775536 180.409668,41.8509741 183.606617,41.8509741 C186.803567,41.8509741 189.104402,42.5533342 190.509122,43.9580544 C191.913842,45.3627746 192.616202,47.6636094 192.616202,50.8605589 C192.616202,54.0575083 191.913842,56.3583431 190.509122,57.7630633 C189.104402,59.1677835 186.803567,59.8701436 183.606617,59.8701436 C179.344018,59.8701436 176.292385,60.8146968 174.451717,62.7038033 C172.611049,64.5929097 171.690715,67.6445433 171.690715,71.8587039 C171.690715,76.0728645 172.611049,79.1002787 174.451717,80.9409465 C176.292385,82.7816144 179.344018,83.7019483 183.606617,83.7019483 C186.803567,83.7019483 189.104402,84.4043084 190.509122,85.8090286 C191.913842,87.2137488 192.616202,89.5145836 192.616202,92.711533 C192.616202,95.9084824 191.913842,98.2093172 190.509122,99.6140374 C189.104402,101.018758 186.803567,101.721118 183.606617,101.721118 C180.409668,101.721118 178.108833,101.018758 176.704113,99.6140374 C175.299393,98.2093172 174.597033,95.9084824 174.597033,92.711533 C174.597033,88.545811 173.676699,85.5183968 171.836031,83.6292903 C169.995363,81.7401839 166.94373,80.7956306 162.68113,80.7956306 C159.484181,80.7956306 157.183346,80.0932705 155.778626,78.6885503 C154.373906,77.2838301 153.671546,74.9829953 153.671546,71.7860459 C153.671546,67.620324 152.751212,64.5929097 150.910544,62.7038033 C149.069876,60.8146968 146.018243,59.8701436 141.755643,59.8701436 C137.493044,59.8701436 134.441411,60.8146968 132.600743,62.7038033 C130.760075,64.5929097 129.839741,67.620324 129.839741,71.7860459 C129.839741,74.9829953 129.137381,77.2838301 127.732661,78.6885503 C126.32794,80.0932705 124.027106,80.7956306 120.830156,80.7956306 C116.567557,80.7956306 113.515923,81.7401839 111.675256,83.6292903 C109.834588,85.5183968 108.914254,88.545811 108.914254,92.711533 C108.914254,95.9084824 108.211894,98.2093172 106.807174,99.6140374 C105.402453,101.018758 103.101619,101.721118 99.9046692,101.721118 C96.7077198,101.721118 94.406885,101.018758 93.0021648,99.6140374 C91.5974446,98.2093172 90.8950845,95.9084824 90.8950845,92.711533 C90.8950845,89.5145836 91.5974446,87.2137488 93.0021648,85.8090286 C94.406885,84.4043084 96.7077198,83.7019483 99.9046692,83.7019483 C104.070391,83.7019483 107.097805,82.7816144 108.986912,80.9409465 C110.876018,79.1002787 111.820572,76.0728645 111.820572,71.8587039 C111.820572,67.6445433 110.876018,64.5929097 108.986912,62.7038033 C107.097805,60.8146968 104.070391,59.8701436 99.9046692,59.8701436 C96.7077198,59.8701436 94.406885,59.1677835 93.0021648,57.7630633 C91.5974446,56.3583431 90.8950845,54.0575083 90.8950845,50.8605589 C90.8950845,47.6636094 91.5974446,45.3627746 93.0021648,43.9580544 C94.406885,42.5533342 96.7077198,41.8509741 99.9046692,41.8509741 C103.101619,41.8509741 105.402453,42.5533342 106.807174,43.9580544 C108.211894,45.3627746 108.914254,47.6636094 108.914254,50.8605589 C108.914254,55.1231581 109.834588,58.1747916 111.675256,60.0154594 C113.515923,61.8561273 116.543338,62.7764612 120.757498,62.7764612 C124.971659,62.7764612 128.023292,61.8561273 129.912399,60.0154594 C131.801505,58.1747916 132.746059,55.1231581 132.746059,50.8605589 C132.746059,47.6636094 133.448419,45.3627746 134.853139,43.9580544 C136.257859,42.5533342 138.558694,41.8509741 141.755643,41.8509741 C144.952593,41.8509741 147.253428,42.5533342 148.658148,43.9580544 C150.062868,45.3627746 150.765228,47.6636094 150.765228,50.8605589 C150.765228,55.1231581 151.685562,58.1747916 153.52623,60.0154594 C155.366898,61.8561273 158.418531,62.7764612 162.68113,62.7764612 C166.94373,62.7764612 169.995363,61.8561273 171.836031,60.0154594 C173.676699,58.1747916 174.597033,55.1231581 174.597033,50.8605589 C174.597033,47.6636094 175.275174,45.3869939 176.631455,44.0307124 Z M106.734516,36.9102341 C105.378234,38.2665157 103.101619,38.9446565 99.9046692,38.9446565 C96.7077198,38.9446565 94.406885,38.2422964 93.0021648,36.8375762 C91.5974446,35.432856 90.8950845,33.1320212 90.8950845,29.9350718 C90.8950845,26.7381224 91.5974446,24.4372876 93.0021648,23.0325674 C94.406885,21.6278472 96.7077198,20.9254871 99.9046692,20.9254871 C103.101619,20.9254871 105.402453,21.6278472 106.807174,23.0325674 C108.211894,24.4372876 108.914254,26.7381224 108.914254,29.9350718 C108.914254,33.1320212 108.187674,35.4570753 106.734516,36.9102341 Z M190.436464,36.9102341 C189.080182,38.2665157 186.803567,38.9446565 183.606617,38.9446565 C180.409668,38.9446565 178.108833,38.2422964 176.704113,36.8375762 C175.299393,35.432856 174.597033,33.1320212 174.597033,29.9350718 C174.597033,26.7381224 175.299393,24.4372876 176.704113,23.0325674 C178.108833,21.6278472 180.409668,20.9254871 183.606617,20.9254871 C186.803567,20.9254871 189.104402,21.6278472 190.509122,23.0325674 C191.913842,24.4372876 192.616202,26.7381224 192.616202,29.9350718 C192.616202,33.1320212 191.889623,35.4570753 190.436464,36.9102341 Z M106.734516,78.7612083 C105.378234,80.1174898 103.101619,80.7956306 99.9046692,80.7956306 C96.7077198,80.7956306 94.406885,80.0932705 93.0021648,78.6885503 C91.5974446,77.2838301 90.8950845,74.9829953 90.8950845,71.7860459 C90.8950845,68.5890965 91.5974446,66.2882617 93.0021648,64.8835415 C94.406885,63.4788213 96.7077198,62.7764612 99.9046692,62.7764612 C103.101619,62.7764612 105.402453,63.4788213 106.807174,64.8835415 C108.211894,66.2882617 108.914254,68.5890965 108.914254,71.7860459 C108.914254,74.9829953 108.187674,77.3080495 106.734516,78.7612083 Z M176.631455,64.9561994 C178.084614,63.5030406 180.409668,62.7764612 183.606617,62.7764612 C186.803567,62.7764612 189.104402,63.4788213 190.509122,64.8835415 C191.913842,66.2882617 192.616202,68.5890965 192.616202,71.7860459 C192.616202,74.9829953 191.913842,77.2838301 190.509122,78.6885503 C189.104402,80.0932705 186.803567,80.7956306 183.606617,80.7956306 C180.409668,80.7956306 178.108833,80.0932705 176.704113,78.6885503 C175.299393,77.2838301 174.597033,74.9829953 174.597033,71.7860459 C174.597033,68.5890965 175.275174,66.312481 176.631455,64.9561994 Z"
                id="Shape"></path>
            <path
                d="M264.838196,15.9847471 C263.481914,17.3410286 261.205299,18.0191694 258.008349,18.0191694 C254.8114,18.0191694 252.510565,17.3168093 251.105845,15.9120891 C249.701125,14.5073689 248.998765,12.2065341 248.998765,9.00958471 C248.998765,5.8126353 249.701125,3.51180049 251.105845,2.1070803 C252.510565,0.702360098 254.8114,0 258.008349,0 C261.205299,0 263.506133,0.702360098 264.910854,2.1070803 C266.315574,3.51180049 267.017934,5.8126353 267.017934,9.00958471 C267.017934,12.2065341 266.291355,14.5315882 264.838196,15.9847471 Z M251.033187,44.0307124 C252.486346,42.5775536 254.8114,41.8509741 258.008349,41.8509741 C261.205299,41.8509741 263.506133,42.5533342 264.910854,43.9580544 C266.315574,45.3627746 267.017934,47.6636094 267.017934,50.8605589 C267.017934,54.0575083 266.315574,56.3583431 264.910854,57.7630633 C263.506133,59.1677835 261.205299,59.8701436 258.008349,59.8701436 C254.8114,59.8701436 252.510565,59.1677835 251.105845,57.7630633 C249.701125,56.3583431 248.998765,54.0575083 248.998765,50.8605589 C248.998765,47.6636094 249.676905,45.3869939 251.033187,44.0307124 Z M222.987222,36.9102341 C221.63094,38.2665157 219.354325,38.9446565 216.157375,38.9446565 C212.960426,38.9446565 210.659591,38.2422964 209.254871,36.8375762 C207.850151,35.432856 207.14779,33.1320212 207.14779,29.9350718 C207.14779,26.7381224 207.850151,24.4372876 209.254871,23.0325674 C210.659591,21.6278472 212.960426,20.9254871 216.157375,20.9254871 C220.323097,20.9254871 223.350511,20.0051531 225.239618,18.1644853 C227.128724,16.3238175 228.073277,13.2721839 228.073277,9.00958471 C228.073277,5.8126353 228.775638,3.51180049 230.180358,2.1070803 C231.585078,0.702360098 233.885913,0 237.082862,0 C240.279812,0 242.580646,0.702360098 243.985367,2.1070803 C245.390087,3.51180049 246.092447,5.8126353 246.092447,9.00958471 C246.092447,13.2721839 247.012781,16.3238175 248.853449,18.1644853 C250.694117,20.0051531 253.74575,20.9254871 258.008349,20.9254871 C262.270948,20.9254871 265.322582,20.0051531 267.16325,18.1644853 C269.003918,16.3238175 269.924252,13.2721839 269.924252,9.00958471 C269.924252,5.8126353 270.626612,3.51180049 272.031332,2.1070803 C273.436052,0.702360098 275.736887,0 278.933836,0 C282.130786,0 284.431621,0.702360098 285.836341,2.1070803 C287.241061,3.51180049 287.943421,5.8126353 287.943421,9.00958471 C287.943421,13.2721839 288.863755,16.3238175 290.704423,18.1644853 C292.545091,20.0051531 295.596724,20.9254871 299.859323,20.9254871 C303.056273,20.9254871 305.357108,21.6278472 306.761828,23.0325674 C308.166548,24.4372876 308.868908,26.7381224 308.868908,29.9350718 C308.868908,33.1320212 308.166548,35.432856 306.761828,36.8375762 C305.357108,38.2422964 303.056273,38.9446565 299.859323,38.9446565 C296.662374,38.9446565 294.361539,38.2422964 292.956819,36.8375762 C291.552099,35.432856 290.849739,33.1320212 290.849739,29.9350718 C290.849739,25.6724726 289.929405,22.620839 288.088737,20.7801712 C286.248069,18.9395033 283.196436,18.0191694 278.933836,18.0191694 C274.671237,18.0191694 271.619604,18.9395033 269.778936,20.7801712 C267.938268,22.620839 267.017934,25.6724726 267.017934,29.9350718 C267.017934,33.1320212 266.315574,35.432856 264.910854,36.8375762 C263.506133,38.2422964 261.205299,38.9446565 258.008349,38.9446565 C254.8114,38.9446565 252.510565,38.2422964 251.105845,36.8375762 C249.701125,35.432856 248.998765,33.1320212 248.998765,29.9350718 C248.998765,25.6724726 248.054211,22.620839 246.165105,20.7801712 C244.275998,18.9395033 241.224365,18.0191694 237.010204,18.0191694 C232.796044,18.0191694 229.768629,18.9395033 227.927962,20.7801712 C226.087294,22.620839 225.16696,25.6724726 225.16696,29.9350718 C225.16696,33.1320212 224.44038,35.4570753 222.987222,36.9102341 Z M251.033187,85.8816865 C252.486346,84.4285277 254.8114,83.7019483 258.008349,83.7019483 C261.205299,83.7019483 263.506133,84.4043084 264.910854,85.8090286 C266.315574,87.2137488 267.017934,89.5145836 267.017934,92.711533 C267.017934,95.9084824 266.315574,98.2093172 264.910854,99.6140374 C263.506133,101.018758 261.205299,101.721118 258.008349,101.721118 C254.8114,101.721118 252.510565,101.018758 251.105845,99.6140374 C249.701125,98.2093172 248.998765,95.9084824 248.998765,92.711533 C248.998765,89.5145836 249.676905,87.2379681 251.033187,85.8816865 Z M292.884161,64.9561994 C294.33732,63.5030406 296.662374,62.7764612 299.859323,62.7764612 C303.056273,62.7764612 305.357108,63.4788213 306.761828,64.8835415 C308.166548,66.2882617 308.868908,68.5890965 308.868908,71.7860459 C308.868908,74.9829953 308.166548,77.2838301 306.761828,78.6885503 C305.357108,80.0932705 303.056273,80.7956306 299.859323,80.7956306 C295.596724,80.7956306 292.545091,81.7401839 290.704423,83.6292903 C288.863755,85.5183968 287.943421,88.545811 287.943421,92.711533 C287.943421,95.9084824 287.241061,98.2093172 285.836341,99.6140374 C284.431621,101.018758 282.130786,101.721118 278.933836,101.721118 C275.736887,101.721118 273.436052,101.018758 272.031332,99.6140374 C270.626612,98.2093172 269.924252,95.9084824 269.924252,92.711533 C269.924252,88.545811 269.003918,85.5183968 267.16325,83.6292903 C265.322582,81.7401839 262.270948,80.7956306 258.008349,80.7956306 C253.74575,80.7956306 250.694117,81.7401839 248.853449,83.6292903 C247.012781,85.5183968 246.092447,88.545811 246.092447,92.711533 C246.092447,95.9084824 245.390087,98.2093172 243.985367,99.6140374 C242.580646,101.018758 240.279812,101.721118 237.082862,101.721118 C233.885913,101.721118 231.585078,101.018758 230.180358,99.6140374 C228.775638,98.2093172 228.073277,95.9084824 228.073277,92.711533 C228.073277,88.545811 227.128724,85.5183968 225.239618,83.6292903 C223.350511,81.7401839 220.323097,80.7956306 216.157375,80.7956306 C212.960426,80.7956306 210.659591,80.0932705 209.254871,78.6885503 C207.850151,77.2838301 207.14779,74.9829953 207.14779,71.7860459 C207.14779,68.5890965 207.850151,66.2882617 209.254871,64.8835415 C210.659591,63.4788213 212.960426,62.7764612 216.157375,62.7764612 C219.354325,62.7764612 221.655159,63.4788213 223.05988,64.8835415 C224.4646,66.2882617 225.16696,68.5890965 225.16696,71.7860459 C225.16696,76.0486451 226.087294,79.1002787 227.927962,80.9409465 C229.768629,82.7816144 232.796044,83.7019483 237.010204,83.7019483 C241.224365,83.7019483 244.275998,82.7816144 246.165105,80.9409465 C248.054211,79.1002787 248.998765,76.0486451 248.998765,71.7860459 C248.998765,68.5890965 249.701125,66.2882617 251.105845,64.8835415 C252.510565,63.4788213 254.8114,62.7764612 258.008349,62.7764612 C261.205299,62.7764612 263.506133,63.4788213 264.910854,64.8835415 C266.315574,66.2882617 267.017934,68.5890965 267.017934,71.7860459 C267.017934,76.0486451 267.938268,79.1002787 269.778936,80.9409465 C271.619604,82.7816144 274.671237,83.7019483 278.933836,83.7019483 C283.196436,83.7019483 286.248069,82.7816144 288.088737,80.9409465 C289.929405,79.1002787 290.849739,76.0486451 290.849739,71.7860459 C290.849739,68.5890965 291.527879,66.312481 292.884161,64.9561994 Z"
                id="Shape"></path>
            <path
                d="M353.335568,18.0191694 C349.072969,18.0191694 346.021335,18.9395033 344.180668,20.7801712 C342.34,22.620839 341.419666,25.6724726 341.419666,29.9350718 C341.419666,34.197671 342.34,37.2493045 344.180668,39.0899724 C346.021335,40.9306402 349.072969,41.8509741 353.335568,41.8509741 C356.532518,41.8509741 358.833352,42.5533342 360.238073,43.9580544 C361.642793,45.3627746 362.345153,47.6636094 362.345153,50.8605589 C362.345153,54.0575083 361.642793,56.3583431 360.238073,57.7630633 C358.833352,59.1677835 356.532518,59.8701436 353.335568,59.8701436 C349.072969,59.8701436 346.021335,60.8146968 344.180668,62.7038033 C342.34,64.5929097 341.419666,67.6445433 341.419666,71.8587039 C341.419666,76.0728645 342.34,79.1002787 344.180668,80.9409465 C346.021335,82.7816144 349.072969,83.7019483 353.335568,83.7019483 C356.532518,83.7019483 358.833352,84.4043084 360.238073,85.8090286 C361.642793,87.2137488 362.345153,89.5145836 362.345153,92.711533 C362.345153,95.9084824 361.642793,98.2093172 360.238073,99.6140374 C358.833352,101.018758 356.532518,101.721118 353.335568,101.721118 C350.138619,101.721118 347.837784,101.018758 346.433064,99.6140374 C345.028344,98.2093172 344.325983,95.9084824 344.325983,92.711533 C344.325983,88.545811 343.38143,85.5183968 341.492324,83.6292903 C339.603217,81.7401839 336.575803,80.7956306 332.410081,80.7956306 C329.213132,80.7956306 326.912297,80.0932705 325.507577,78.6885503 C324.102856,77.2838301 323.400496,74.9829953 323.400496,71.7860459 C323.400496,68.5890965 324.102856,66.2882617 325.507577,64.8835415 C326.912297,63.4788213 329.213132,62.7764612 332.410081,62.7764612 C336.575803,62.7764612 339.603217,61.8561273 341.492324,60.0154594 C343.38143,58.1747916 344.325983,55.1231581 344.325983,50.8605589 C344.325983,46.5979596 343.38143,43.5463261 341.492324,41.7056583 C339.603217,39.8649904 336.575803,38.9446565 332.410081,38.9446565 C329.213132,38.9446565 326.912297,38.2422964 325.507577,36.8375762 C324.102856,35.432856 323.400496,33.1320212 323.400496,29.9350718 C323.400496,26.7381224 324.102856,24.4372876 325.507577,23.0325674 C326.912297,21.6278472 329.213132,20.9254871 332.410081,20.9254871 C336.575803,20.9254871 339.603217,20.0051531 341.492324,18.1644853 C343.38143,16.3238175 344.325983,13.2721839 344.325983,9.00958471 C344.325983,5.8126353 345.028344,3.51180049 346.433064,2.1070803 C347.837784,0.702360098 350.138619,0 353.335568,0 C356.532518,0 358.833352,0.702360098 360.238073,2.1070803 C361.642793,3.51180049 362.345153,5.8126353 362.345153,9.00958471 C362.345153,12.2065341 361.642793,14.5073689 360.238073,15.9120891 C358.833352,17.3168093 356.532518,18.0191694 353.335568,18.0191694 Z M367.285893,44.0307124 C368.739052,42.5775536 371.064106,41.8509741 374.261055,41.8509741 C377.458005,41.8509741 379.758839,42.5533342 381.16356,43.9580544 C382.56828,45.3627746 383.27064,47.6636094 383.27064,50.8605589 C383.27064,54.0575083 382.56828,56.3583431 381.16356,57.7630633 C379.758839,59.1677835 377.458005,59.8701436 374.261055,59.8701436 C371.064106,59.8701436 368.763271,59.1677835 367.358551,57.7630633 C365.953831,56.3583431 365.25147,54.0575083 365.25147,50.8605589 C365.25147,47.6636094 365.929611,45.3869939 367.285893,44.0307124 Z M395.186542,38.9446565 C391.989593,38.9446565 389.688758,38.2422964 388.284038,36.8375762 C386.879318,35.432856 386.176958,33.1320212 386.176958,29.9350718 C386.176958,25.6724726 385.256624,22.620839 383.415956,20.7801712 C381.575288,18.9395033 378.523654,18.0191694 374.261055,18.0191694 C371.064106,18.0191694 368.763271,17.3168093 367.358551,15.9120891 C365.953831,14.5073689 365.25147,12.2065341 365.25147,9.00958471 C365.25147,5.8126353 365.953831,3.51180049 367.358551,2.1070803 C368.763271,0.702360098 371.064106,0 374.261055,0 C377.458005,0 379.758839,0.702360098 381.16356,2.1070803 C382.56828,3.51180049 383.27064,5.8126353 383.27064,9.00958471 C383.27064,13.2721839 384.190974,16.3238175 386.031642,18.1644853 C387.87231,20.0051531 390.923943,20.9254871 395.186542,20.9254871 C398.383492,20.9254871 400.684326,21.6278472 402.089047,23.0325674 C403.493767,24.4372876 404.196127,26.7381224 404.196127,29.9350718 C404.196127,33.1320212 403.493767,35.432856 402.089047,36.8375762 C400.684326,38.2422964 398.383492,38.9446565 395.186542,38.9446565 Z M325.434919,85.8816865 C326.888078,84.4285277 329.213132,83.7019483 332.410081,83.7019483 C335.60703,83.7019483 337.907865,84.4043084 339.312585,85.8090286 C340.717306,87.2137488 341.419666,89.5145836 341.419666,92.711533 C341.419666,95.9084824 340.717306,98.2093172 339.312585,99.6140374 C337.907865,101.018758 335.60703,101.721118 332.410081,101.721118 C329.213132,101.721118 326.912297,101.018758 325.507577,99.6140374 C324.102856,98.2093172 323.400496,95.9084824 323.400496,92.711533 C323.400496,89.5145836 324.078637,87.2379681 325.434919,85.8816865 Z M367.285893,85.8816865 C368.739052,84.4285277 371.064106,83.7019483 374.261055,83.7019483 C377.458005,83.7019483 379.758839,84.4043084 381.16356,85.8090286 C382.56828,87.2137488 383.27064,89.5145836 383.27064,92.711533 C383.27064,95.9084824 382.56828,98.2093172 381.16356,99.6140374 C379.758839,101.018758 377.458005,101.721118 374.261055,101.721118 C371.064106,101.721118 368.763271,101.018758 367.358551,99.6140374 C365.953831,98.2093172 365.25147,95.9084824 365.25147,92.711533 C365.25147,89.5145836 365.929611,87.2379681 367.285893,85.8816865 Z M416.112029,62.7764612 C419.308979,62.7764612 421.609814,63.4788213 423.014534,64.8835415 C424.419254,66.2882617 425.121614,68.5890965 425.121614,71.7860459 C425.121614,74.9829953 424.419254,77.2838301 423.014534,78.6885503 C421.609814,80.0932705 419.308979,80.7956306 416.112029,80.7956306 C411.84943,80.7956306 408.797797,81.7401839 406.957129,83.6292903 C405.116461,85.5183968 404.196127,88.545811 404.196127,92.711533 C404.196127,95.9084824 403.493767,98.2093172 402.089047,99.6140374 C400.684326,101.018758 398.383492,101.721118 395.186542,101.721118 C391.989593,101.721118 389.688758,101.018758 388.284038,99.6140374 C386.879318,98.2093172 386.176958,95.9084824 386.176958,92.711533 C386.176958,89.5145836 386.879318,87.2137488 388.284038,85.8090286 C389.688758,84.4043084 391.989593,83.7019483 395.186542,83.7019483 C399.449141,83.7019483 402.500775,82.7816144 404.341443,80.9409465 C406.182111,79.1002787 407.102445,76.0486451 407.102445,71.7860459 C407.102445,68.5890965 407.804805,66.2882617 409.209525,64.8835415 C410.614245,63.4788213 412.91508,62.7764612 416.112029,62.7764612 Z"
                id="Shape"></path>
            <path
                d="M57.6904053,172.984747 C56.3341238,174.341029 54.0575083,175.019169 50.8605589,175.019169 C47.6636094,175.019169 45.3627746,174.316809 43.9580544,172.912089 C42.5533342,171.507369 41.8509741,169.206534 41.8509741,166.009585 C41.8509741,162.812635 42.5533342,160.5118 43.9580544,159.10708 C45.3627746,157.70236 47.6636094,157 50.8605589,157 C54.0575083,157 56.3583431,157.70236 57.7630633,159.10708 C59.1677835,160.5118 59.8701436,162.812635 59.8701436,166.009585 C59.8701436,169.206534 59.1435641,171.531588 57.6904053,172.984747 Z M43.8853965,201.030712 C45.3385553,199.577554 47.6636094,198.850974 50.8605589,198.850974 C54.0575083,198.850974 56.3583431,199.553334 57.7630633,200.958054 C59.1677835,202.362775 59.8701436,204.663609 59.8701436,207.860559 C59.8701436,211.057508 59.1677835,213.358343 57.7630633,214.763063 C56.3583431,216.167783 54.0575083,216.870144 50.8605589,216.870144 C47.6636094,216.870144 45.3627746,216.167783 43.9580544,214.763063 C42.5533342,213.358343 41.8509741,211.057508 41.8509741,207.860559 C41.8509741,204.663609 42.5291149,202.386994 43.8853965,201.030712 Z M15.8394312,193.910234 C14.4831496,195.266516 12.2065341,195.944656 9.00958471,195.944656 C5.8126353,195.944656 3.51180049,195.242296 2.1070803,193.837576 C0.702360098,192.432856 0,190.132021 0,186.935072 C0,183.738122 0.702360098,181.437288 2.1070803,180.032567 C3.51180049,178.627847 5.8126353,177.925487 9.00958471,177.925487 C13.1753067,177.925487 16.2027209,177.005153 18.0918274,175.164485 C19.9809338,173.323817 20.9254871,170.272184 20.9254871,166.009585 C20.9254871,162.812635 21.6278472,160.5118 23.0325674,159.10708 C24.4372876,157.70236 26.7381224,157 29.9350718,157 C33.1320212,157 35.432856,157.70236 36.8375762,159.10708 C38.2422964,160.5118 38.9446565,162.812635 38.9446565,166.009585 C38.9446565,170.272184 39.8649904,173.323817 41.7056583,175.164485 C43.5463261,177.005153 46.5979596,177.925487 50.8605589,177.925487 C55.1231581,177.925487 58.1747916,177.005153 60.0154594,175.164485 C61.8561273,173.323817 62.7764612,170.272184 62.7764612,166.009585 C62.7764612,162.812635 63.4788213,160.5118 64.8835415,159.10708 C66.2882617,157.70236 68.5890965,157 71.7860459,157 C74.9829953,157 77.2838301,157.70236 78.6885503,159.10708 C80.0932705,160.5118 80.7956306,162.812635 80.7956306,166.009585 C80.7956306,170.272184 81.7159646,173.323817 83.5566324,175.164485 C85.3973002,177.005153 88.4489338,177.925487 92.711533,177.925487 C95.9084824,177.925487 98.2093172,178.627847 99.6140374,180.032567 C101.018758,181.437288 101.721118,183.738122 101.721118,186.935072 C101.721118,190.132021 101.018758,192.432856 99.6140374,193.837576 C98.2093172,195.242296 95.9084824,195.944656 92.711533,195.944656 C89.5145836,195.944656 87.2137488,195.242296 85.8090286,193.837576 C84.4043084,192.432856 83.7019483,190.132021 83.7019483,186.935072 C83.7019483,182.672473 82.7816144,179.620839 80.9409465,177.780171 C79.1002787,175.939503 76.0486451,175.019169 71.7860459,175.019169 C67.5234467,175.019169 64.4718132,175.939503 62.6311453,177.780171 C60.7904775,179.620839 59.8701436,182.672473 59.8701436,186.935072 C59.8701436,190.132021 59.1677835,192.432856 57.7630633,193.837576 C56.3583431,195.242296 54.0575083,195.944656 50.8605589,195.944656 C47.6636094,195.944656 45.3627746,195.242296 43.9580544,193.837576 C42.5533342,192.432856 41.8509741,190.132021 41.8509741,186.935072 C41.8509741,182.672473 40.9064209,179.620839 39.0173144,177.780171 C37.128208,175.939503 34.0765744,175.019169 29.8624138,175.019169 C25.6482532,175.019169 22.620839,175.939503 20.7801712,177.780171 C18.9395033,179.620839 18.0191694,182.672473 18.0191694,186.935072 C18.0191694,190.132021 17.29259,192.457075 15.8394312,193.910234 Z M43.8853965,242.881687 C45.3385553,241.428528 47.6636094,240.701948 50.8605589,240.701948 C54.0575083,240.701948 56.3583431,241.404308 57.7630633,242.809029 C59.1677835,244.213749 59.8701436,246.514584 59.8701436,249.711533 C59.8701436,252.908482 59.1677835,255.209317 57.7630633,256.614037 C56.3583431,258.018758 54.0575083,258.721118 50.8605589,258.721118 C47.6636094,258.721118 45.3627746,258.018758 43.9580544,256.614037 C42.5533342,255.209317 41.8509741,252.908482 41.8509741,249.711533 C41.8509741,246.514584 42.5291149,244.237968 43.8853965,242.881687 Z M85.7363706,221.956199 C87.1895295,220.503041 89.5145836,219.776461 92.711533,219.776461 C95.9084824,219.776461 98.2093172,220.478821 99.6140374,221.883542 C101.018758,223.288262 101.721118,225.589097 101.721118,228.786046 C101.721118,231.982995 101.018758,234.28383 99.6140374,235.68855 C98.2093172,237.093271 95.9084824,237.795631 92.711533,237.795631 C88.4489338,237.795631 85.3973002,238.740184 83.5566324,240.62929 C81.7159646,242.518397 80.7956306,245.545811 80.7956306,249.711533 C80.7956306,252.908482 80.0932705,255.209317 78.6885503,256.614037 C77.2838301,258.018758 74.9829953,258.721118 71.7860459,258.721118 C68.5890965,258.721118 66.2882617,258.018758 64.8835415,256.614037 C63.4788213,255.209317 62.7764612,252.908482 62.7764612,249.711533 C62.7764612,245.545811 61.8561273,242.518397 60.0154594,240.62929 C58.1747916,238.740184 55.1231581,237.795631 50.8605589,237.795631 C46.5979596,237.795631 43.5463261,238.740184 41.7056583,240.62929 C39.8649904,242.518397 38.9446565,245.545811 38.9446565,249.711533 C38.9446565,252.908482 38.2422964,255.209317 36.8375762,256.614037 C35.432856,258.018758 33.1320212,258.721118 29.9350718,258.721118 C26.7381224,258.721118 24.4372876,258.018758 23.0325674,256.614037 C21.6278472,255.209317 20.9254871,252.908482 20.9254871,249.711533 C20.9254871,245.545811 19.9809338,242.518397 18.0918274,240.62929 C16.2027209,238.740184 13.1753067,237.795631 9.00958471,237.795631 C5.8126353,237.795631 3.51180049,237.093271 2.1070803,235.68855 C0.702360098,234.28383 0,231.982995 0,228.786046 C0,225.589097 0.702360098,223.288262 2.1070803,221.883542 C3.51180049,220.478821 5.8126353,219.776461 9.00958471,219.776461 C12.2065341,219.776461 14.5073689,220.478821 15.9120891,221.883542 C17.3168093,223.288262 18.0191694,225.589097 18.0191694,228.786046 C18.0191694,233.048645 18.9395033,236.100279 20.7801712,237.940947 C22.620839,239.781614 25.6482532,240.701948 29.8624138,240.701948 C34.0765744,240.701948 37.128208,239.781614 39.0173144,237.940947 C40.9064209,236.100279 41.8509741,233.048645 41.8509741,228.786046 C41.8509741,225.589097 42.5533342,223.288262 43.9580544,221.883542 C45.3627746,220.478821 47.6636094,219.776461 50.8605589,219.776461 C54.0575083,219.776461 56.3583431,220.478821 57.7630633,221.883542 C59.1677835,223.288262 59.8701436,225.589097 59.8701436,228.786046 C59.8701436,233.048645 60.7904775,236.100279 62.6311453,237.940947 C64.4718132,239.781614 67.5234467,240.701948 71.7860459,240.701948 C76.0486451,240.701948 79.1002787,239.781614 80.9409465,237.940947 C82.7816144,236.100279 83.7019483,233.048645 83.7019483,228.786046 C83.7019483,225.589097 84.3800891,223.312481 85.7363706,221.956199 Z"
                id="Shape"></path>
            <path
                d="M146.187778,175.019169 C141.925179,175.019169 138.873545,175.939503 137.032877,177.780171 C135.192209,179.620839 134.271875,182.672473 134.271875,186.935072 C134.271875,191.197671 135.192209,194.249305 137.032877,196.089972 C138.873545,197.93064 141.925179,198.850974 146.187778,198.850974 C149.384727,198.850974 151.685562,199.553334 153.090282,200.958054 C154.495002,202.362775 155.197362,204.663609 155.197362,207.860559 C155.197362,211.057508 154.495002,213.358343 153.090282,214.763063 C151.685562,216.167783 149.384727,216.870144 146.187778,216.870144 C142.990828,216.870144 140.689994,216.167783 139.285273,214.763063 C137.880553,213.358343 137.178193,211.057508 137.178193,207.860559 C137.178193,203.59796 136.23364,200.546326 134.344533,198.705658 C132.455427,196.86499 129.428013,195.944656 125.262291,195.944656 C122.065341,195.944656 119.764506,195.242296 118.359786,193.837576 C116.955066,192.432856 116.252706,190.132021 116.252706,186.935072 C116.252706,183.738122 116.955066,181.437288 118.359786,180.032567 C119.764506,178.627847 122.065341,177.925487 125.262291,177.925487 C129.428013,177.925487 132.455427,177.005153 134.344533,175.164485 C136.23364,173.323817 137.178193,170.272184 137.178193,166.009585 C137.178193,162.812635 137.880553,160.5118 139.285273,159.10708 C140.689994,157.70236 142.990828,157 146.187778,157 C149.384727,157 151.685562,157.70236 153.090282,159.10708 C154.495002,160.5118 155.197362,162.812635 155.197362,166.009585 C155.197362,169.206534 154.495002,171.507369 153.090282,172.912089 C151.685562,174.316809 149.384727,175.019169 146.187778,175.019169 Z M160.138102,159.179738 C161.591261,157.726579 163.916315,157 167.113265,157 C170.310214,157 172.611049,157.70236 174.015769,159.10708 C175.420489,160.5118 176.12285,162.812635 176.12285,166.009585 C176.12285,169.206534 175.420489,171.507369 174.015769,172.912089 C172.611049,174.316809 170.310214,175.019169 167.113265,175.019169 C163.916315,175.019169 161.615481,174.316809 160.21076,172.912089 C158.80604,171.507369 158.10368,169.206534 158.10368,166.009585 C158.10368,162.812635 158.781821,160.53602 160.138102,159.179738 Z M188.038752,175.019169 C184.841802,175.019169 182.540968,174.316809 181.136247,172.912089 C179.731527,171.507369 179.029167,169.206534 179.029167,166.009585 C179.029167,162.812635 179.731527,160.5118 181.136247,159.10708 C182.540968,157.70236 184.841802,157 188.038752,157 C191.235701,157 193.536536,157.70236 194.941256,159.10708 C196.345976,160.5118 197.048337,162.812635 197.048337,166.009585 C197.048337,170.272184 197.96867,173.323817 199.809338,175.164485 C201.650006,177.005153 204.70164,177.925487 208.964239,177.925487 C212.161188,177.925487 214.462023,178.627847 215.866743,180.032567 C217.271464,181.437288 217.973824,183.738122 217.973824,186.935072 C217.973824,190.132021 217.271464,192.432856 215.866743,193.837576 C214.462023,195.242296 212.161188,195.944656 208.964239,195.944656 C205.76729,195.944656 203.466455,195.242296 202.061735,193.837576 C200.657014,192.432856 199.954654,190.132021 199.954654,186.935072 C199.954654,182.672473 199.03432,179.620839 197.193652,177.780171 C195.352985,175.939503 192.301351,175.019169 188.038752,175.019169 Z M160.138102,201.030712 C161.591261,199.577554 163.916315,198.850974 167.113265,198.850974 C170.310214,198.850974 172.611049,199.553334 174.015769,200.958054 C175.420489,202.362775 176.12285,204.663609 176.12285,207.860559 C176.12285,211.057508 175.420489,213.358343 174.015769,214.763063 C172.611049,216.167783 170.310214,216.870144 167.113265,216.870144 C163.916315,216.870144 161.615481,216.167783 160.21076,214.763063 C158.80604,213.358343 158.10368,211.057508 158.10368,207.860559 C158.10368,204.663609 158.781821,202.386994 160.138102,201.030712 Z M146.187778,240.701948 C149.384727,240.701948 151.685562,241.404308 153.090282,242.809029 C154.495002,244.213749 155.197362,246.514584 155.197362,249.711533 C155.197362,252.908482 154.495002,255.209317 153.090282,256.614037 C151.685562,258.018758 149.384727,258.721118 146.187778,258.721118 C142.990828,258.721118 140.689994,258.018758 139.285273,256.614037 C137.880553,255.209317 137.178193,252.908482 137.178193,249.711533 C137.178193,245.545811 136.23364,242.518397 134.344533,240.62929 C132.455427,238.740184 129.428013,237.795631 125.262291,237.795631 C122.065341,237.795631 119.764506,237.093271 118.359786,235.68855 C116.955066,234.28383 116.252706,231.982995 116.252706,228.786046 C116.252706,225.589097 116.955066,223.288262 118.359786,221.883542 C119.764506,220.478821 122.065341,219.776461 125.262291,219.776461 C128.45924,219.776461 130.760075,220.478821 132.164795,221.883542 C133.569515,223.288262 134.271875,225.589097 134.271875,228.786046 C134.271875,233.048645 135.192209,236.100279 137.032877,237.940947 C138.873545,239.781614 141.925179,240.701948 146.187778,240.701948 Z M160.138102,242.881687 C161.591261,241.428528 163.916315,240.701948 167.113265,240.701948 C170.310214,240.701948 172.611049,241.404308 174.015769,242.809029 C175.420489,244.213749 176.12285,246.514584 176.12285,249.711533 C176.12285,252.908482 175.420489,255.209317 174.015769,256.614037 C172.611049,258.018758 170.310214,258.721118 167.113265,258.721118 C163.916315,258.721118 161.615481,258.018758 160.21076,256.614037 C158.80604,255.209317 158.10368,252.908482 158.10368,249.711533 C158.10368,246.514584 158.781821,244.237968 160.138102,242.881687 Z M208.964239,219.776461 C212.161188,219.776461 214.462023,220.478821 215.866743,221.883542 C217.271464,223.288262 217.973824,225.589097 217.973824,228.786046 C217.973824,231.982995 217.271464,234.28383 215.866743,235.68855 C214.462023,237.093271 212.161188,237.795631 208.964239,237.795631 C204.70164,237.795631 201.650006,238.740184 199.809338,240.62929 C197.96867,242.518397 197.048337,245.545811 197.048337,249.711533 C197.048337,250.777183 196.975679,251.745955 196.830363,252.617851 C196.685047,253.489746 196.442854,254.240545 196.103783,254.870247 C195.764713,255.499949 195.352985,256.056993 194.868598,256.541379 C193.512317,257.994538 191.235701,258.721118 188.038752,258.721118 C184.841802,258.721118 182.540968,258.018758 181.136247,256.614037 C179.731527,255.209317 179.029167,252.908482 179.029167,249.711533 C179.029167,246.514584 179.731527,244.213749 181.136247,242.809029 C182.540968,241.404308 184.841802,240.701948 188.038752,240.701948 C192.301351,240.701948 195.352985,239.781614 197.193652,237.940947 C199.03432,236.100279 199.954654,233.072864 199.954654,228.858704 C199.954654,224.644543 199.03432,221.59291 197.193652,219.703803 C195.352985,217.814697 192.301351,216.870144 188.038752,216.870144 C184.841802,216.870144 182.540968,216.167783 181.136247,214.763063 C179.731527,213.358343 179.029167,211.057508 179.029167,207.860559 C179.029167,204.663609 179.731527,202.362775 181.136247,200.958054 C182.540968,199.553334 184.841802,198.850974 188.038752,198.850974 C191.235701,198.850974 193.536536,199.553334 194.941256,200.958054 C196.345976,202.362775 197.048337,204.663609 197.048337,207.860559 C197.048337,212.123158 197.96867,215.174792 199.809338,217.015459 C201.650006,218.856127 204.70164,219.776461 208.964239,219.776461 Z"
                id="Shape"></path>
            <path
                d="M320.857468,159.179738 C322.310627,157.726579 324.635681,157 327.832631,157 C331.02958,157 333.330415,157.70236 334.735135,159.10708 C336.139855,160.5118 336.842215,162.812635 336.842215,166.009585 C336.842215,169.206534 336.139855,171.507369 334.735135,172.912089 C333.330415,174.316809 331.02958,175.019169 327.832631,175.019169 C323.570032,175.019169 320.518398,175.939503 318.67773,177.780171 C316.837062,179.620839 315.916728,182.672473 315.916728,186.935072 C315.916728,190.132021 315.214368,192.432856 313.809648,193.837576 C312.404928,195.242296 310.104093,195.944656 306.907144,195.944656 C303.710194,195.944656 301.409359,195.242296 300.004639,193.837576 C298.599919,192.432856 297.897559,190.132021 297.897559,186.935072 C297.897559,183.738122 298.599919,181.437288 300.004639,180.032567 C301.409359,178.627847 303.710194,177.925487 306.907144,177.925487 C311.072866,177.925487 314.10028,177.005153 315.989386,175.164485 C317.878493,173.323817 318.823046,170.272184 318.823046,166.009585 C318.823046,162.812635 319.501187,160.53602 320.857468,159.179738 Z M313.73699,214.835721 C312.380709,216.192003 310.104093,216.870144 306.907144,216.870144 C303.710194,216.870144 301.409359,216.167783 300.004639,214.763063 C298.599919,213.358343 297.897559,211.057508 297.897559,207.860559 C297.897559,204.663609 298.599919,202.362775 300.004639,200.958054 C301.409359,199.553334 303.710194,198.850974 306.907144,198.850974 C310.104093,198.850974 312.404928,199.553334 313.809648,200.958054 C315.214368,202.362775 315.916728,204.663609 315.916728,207.860559 C315.916728,211.057508 315.190149,213.382562 313.73699,214.835721 Z M369.683605,195.944656 C366.486655,195.944656 364.185821,195.242296 362.7811,193.837576 C361.37638,192.432856 360.67402,190.132021 360.67402,186.935072 C360.67402,182.672473 359.753686,179.620839 357.913018,177.780171 C356.072351,175.939503 353.020717,175.019169 348.758118,175.019169 C345.561168,175.019169 343.260334,174.316809 341.855613,172.912089 C340.450893,171.507369 339.748533,169.206534 339.748533,166.009585 C339.748533,162.812635 340.450893,160.5118 341.855613,159.10708 C343.260334,157.70236 345.561168,157 348.758118,157 C351.955067,157 354.255902,157.70236 355.660622,159.10708 C357.065342,160.5118 357.767703,162.812635 357.767703,166.009585 C357.767703,170.272184 358.688036,173.323817 360.528704,175.164485 C362.369372,177.005153 365.421006,177.925487 369.683605,177.925487 C372.880554,177.925487 375.181389,178.627847 376.586109,180.032567 C377.99083,181.437288 378.69319,183.738122 378.69319,186.935072 C378.69319,191.197671 379.613524,194.249305 381.454191,196.089972 C383.294859,197.93064 386.346493,198.850974 390.609092,198.850974 C393.806041,198.850974 396.106876,199.553334 397.511596,200.958054 C398.916317,202.362775 399.618677,204.663609 399.618677,207.860559 C399.618677,211.057508 398.916317,213.358343 397.511596,214.763063 C396.106876,216.167783 393.806041,216.870144 390.609092,216.870144 C387.412143,216.870144 385.111308,216.167783 383.706588,214.763063 C382.301867,213.358343 381.599507,211.057508 381.599507,207.860559 C381.599507,203.59796 380.679173,200.546326 378.838505,198.705658 C376.997838,196.86499 373.946204,195.944656 369.683605,195.944656 Z M299.931981,242.881687 C301.38514,241.428528 303.710194,240.701948 306.907144,240.701948 C310.104093,240.701948 312.404928,241.404308 313.809648,242.809029 C315.214368,244.213749 315.916728,246.514584 315.916728,249.711533 C315.916728,252.908482 315.214368,255.209317 313.809648,256.614037 C312.404928,258.018758 310.104093,258.721118 306.907144,258.721118 C303.710194,258.721118 301.409359,258.018758 300.004639,256.614037 C298.599919,255.209317 297.897559,252.908482 297.897559,249.711533 C297.897559,246.514584 298.5757,244.237968 299.931981,242.881687 Z M327.832631,240.701948 C331.02958,240.701948 333.330415,241.404308 334.735135,242.809029 C336.139855,244.213749 336.842215,246.514584 336.842215,249.711533 C336.842215,252.908482 336.139855,255.209317 334.735135,256.614037 C333.330415,258.018758 331.02958,258.721118 327.832631,258.721118 C324.635681,258.721118 322.334847,258.018758 320.930126,256.614037 C319.525406,255.209317 318.823046,252.908482 318.823046,249.711533 C318.823046,245.545811 317.878493,242.518397 315.989386,240.62929 C314.10028,238.740184 311.072866,237.795631 306.907144,237.795631 C303.710194,237.795631 301.409359,237.093271 300.004639,235.68855 C298.599919,234.28383 297.897559,231.982995 297.897559,228.786046 C297.897559,225.589097 298.599919,223.288262 300.004639,221.883542 C301.409359,220.478821 303.710194,219.776461 306.907144,219.776461 C310.104093,219.776461 312.404928,220.478821 313.809648,221.883542 C315.214368,223.288262 315.916728,225.589097 315.916728,228.786046 C315.916728,233.048645 316.837062,236.100279 318.67773,237.940947 C320.518398,239.781614 323.570032,240.701948 327.832631,240.701948 Z M341.782955,242.881687 C343.236114,241.428528 345.561168,240.701948 348.758118,240.701948 C351.955067,240.701948 354.255902,241.404308 355.660622,242.809029 C357.065342,244.213749 357.767703,246.514584 357.767703,249.711533 C357.767703,252.908482 357.065342,255.209317 355.660622,256.614037 C354.255902,258.018758 351.955067,258.721118 348.758118,258.721118 C345.561168,258.721118 343.260334,258.018758 341.855613,256.614037 C340.450893,255.209317 339.748533,252.908482 339.748533,249.711533 C339.748533,246.514584 340.426674,244.237968 341.782955,242.881687 Z M383.63393,221.956199 C385.087088,220.503041 387.412143,219.776461 390.609092,219.776461 C393.806041,219.776461 396.106876,220.478821 397.511596,221.883542 C398.916317,223.288262 399.618677,225.589097 399.618677,228.786046 C399.618677,231.982995 398.916317,234.28383 397.511596,235.68855 C396.106876,237.093271 393.806041,237.795631 390.609092,237.795631 C386.346493,237.795631 383.294859,238.740184 381.454191,240.62929 C379.613524,242.518397 378.69319,245.545811 378.69319,249.711533 C378.69319,252.908482 377.99083,255.209317 376.586109,256.614037 C375.181389,258.018758 372.880554,258.721118 369.683605,258.721118 C366.486655,258.721118 364.185821,258.018758 362.7811,256.614037 C361.37638,255.209317 360.67402,252.908482 360.67402,249.711533 C360.67402,246.514584 361.37638,244.213749 362.7811,242.809029 C364.185821,241.404308 366.486655,240.701948 369.683605,240.701948 C373.946204,240.701948 376.997838,239.781614 378.838505,237.940947 C380.679173,236.100279 381.599507,233.048645 381.599507,228.786046 C381.599507,225.589097 382.277648,223.312481 383.63393,221.956199 Z"
                id="Shape"></path>
            <path
                d="M444.230653,175.019169 C439.968053,175.019169 436.91642,175.939503 435.075752,177.780171 C433.235084,179.620839 432.31475,182.672473 432.31475,186.935072 C432.31475,191.197671 433.235084,194.249305 435.075752,196.089972 C436.91642,197.93064 439.968053,198.850974 444.230653,198.850974 C447.427602,198.850974 449.728437,199.553334 451.133157,200.958054 C452.537877,202.362775 453.240237,204.663609 453.240237,207.860559 C453.240237,211.057508 452.537877,213.358343 451.133157,214.763063 C449.728437,216.167783 447.427602,216.870144 444.230653,216.870144 C439.968053,216.870144 436.91642,217.814697 435.075752,219.703803 C433.235084,221.59291 432.31475,224.644543 432.31475,228.858704 C432.31475,233.072864 433.235084,236.100279 435.075752,237.940947 C436.91642,239.781614 439.968053,240.701948 444.230653,240.701948 C447.427602,240.701948 449.728437,241.404308 451.133157,242.809029 C452.537877,244.213749 453.240237,246.514584 453.240237,249.711533 C453.240237,252.908482 452.537877,255.209317 451.133157,256.614037 C449.728437,258.018758 447.427602,258.721118 444.230653,258.721118 C441.033703,258.721118 438.732868,258.018758 437.328148,256.614037 C435.923428,255.209317 435.221068,252.908482 435.221068,249.711533 C435.221068,245.545811 434.276515,242.518397 432.387408,240.62929 C430.498302,238.740184 427.470887,237.795631 423.305166,237.795631 C420.108216,237.795631 417.807381,237.093271 416.402661,235.68855 C414.997941,234.28383 414.295581,231.982995 414.295581,228.786046 C414.295581,225.589097 414.997941,223.288262 416.402661,221.883542 C417.807381,220.478821 420.108216,219.776461 423.305166,219.776461 C427.470887,219.776461 430.498302,218.856127 432.387408,217.015459 C434.276515,215.174792 435.221068,212.123158 435.221068,207.860559 C435.221068,203.59796 434.276515,200.546326 432.387408,198.705658 C430.498302,196.86499 427.470887,195.944656 423.305166,195.944656 C420.108216,195.944656 417.807381,195.242296 416.402661,193.837576 C414.997941,192.432856 414.295581,190.132021 414.295581,186.935072 C414.295581,183.738122 414.997941,181.437288 416.402661,180.032567 C417.807381,178.627847 420.108216,177.925487 423.305166,177.925487 C427.470887,177.925487 430.498302,177.005153 432.387408,175.164485 C434.276515,173.323817 435.221068,170.272184 435.221068,166.009585 C435.221068,162.812635 435.923428,160.5118 437.328148,159.10708 C438.732868,157.70236 441.033703,157 444.230653,157 C447.427602,157 449.728437,157.70236 451.133157,159.10708 C452.537877,160.5118 453.240237,162.812635 453.240237,166.009585 C453.240237,169.206534 452.537877,171.507369 451.133157,172.912089 C449.728437,174.316809 447.427602,175.019169 444.230653,175.019169 Z M458.180977,201.030712 C459.634136,199.577554 461.95919,198.850974 465.15614,198.850974 C468.353089,198.850974 470.653924,199.553334 472.058644,200.958054 C473.463364,202.362775 474.165724,204.663609 474.165724,207.860559 C474.165724,211.057508 473.463364,213.358343 472.058644,214.763063 C470.653924,216.167783 468.353089,216.870144 465.15614,216.870144 C461.95919,216.870144 459.658355,216.167783 458.253635,214.763063 C456.848915,213.358343 456.146555,211.057508 456.146555,207.860559 C456.146555,204.663609 456.824696,202.386994 458.180977,201.030712 Z M486.081627,195.944656 C482.884677,195.944656 480.583843,195.242296 479.179122,193.837576 C477.774402,192.432856 477.072042,190.132021 477.072042,186.935072 C477.072042,182.672473 476.151708,179.620839 474.31104,177.780171 C472.470372,175.939503 469.418739,175.019169 465.15614,175.019169 C461.95919,175.019169 459.658355,174.316809 458.253635,172.912089 C456.848915,171.507369 456.146555,169.206534 456.146555,166.009585 C456.146555,162.812635 456.848915,160.5118 458.253635,159.10708 C459.658355,157.70236 461.95919,157 465.15614,157 C468.353089,157 470.653924,157.70236 472.058644,159.10708 C473.463364,160.5118 474.165724,162.812635 474.165724,166.009585 C474.165724,170.272184 475.086058,173.323817 476.926726,175.164485 C478.767394,177.005153 481.819028,177.925487 486.081627,177.925487 C489.278576,177.925487 491.579411,178.627847 492.984131,180.032567 C494.388851,181.437288 495.091211,183.738122 495.091211,186.935072 C495.091211,190.132021 494.388851,192.432856 492.984131,193.837576 C491.579411,195.242296 489.278576,195.944656 486.081627,195.944656 Z M416.330003,242.881687 C417.783162,241.428528 420.108216,240.701948 423.305166,240.701948 C426.502115,240.701948 428.80295,241.404308 430.20767,242.809029 C431.61239,244.213749 432.31475,246.514584 432.31475,249.711533 C432.31475,252.908482 431.61239,255.209317 430.20767,256.614037 C428.80295,258.018758 426.502115,258.721118 423.305166,258.721118 C420.108216,258.721118 417.807381,258.018758 416.402661,256.614037 C414.997941,255.209317 414.295581,252.908482 414.295581,249.711533 C414.295581,246.514584 414.973722,244.237968 416.330003,242.881687 Z M458.180977,242.881687 C459.634136,241.428528 461.95919,240.701948 465.15614,240.701948 C468.353089,240.701948 470.653924,241.404308 472.058644,242.809029 C473.463364,244.213749 474.165724,246.514584 474.165724,249.711533 C474.165724,252.908482 473.463364,255.209317 472.058644,256.614037 C470.653924,258.018758 468.353089,258.721118 465.15614,258.721118 C461.95919,258.721118 459.658355,258.018758 458.253635,256.614037 C456.848915,255.209317 456.146555,252.908482 456.146555,249.711533 C456.146555,246.514584 456.824696,244.237968 458.180977,242.881687 Z M507.007114,219.776461 C510.204063,219.776461 512.504898,220.478821 513.909618,221.883542 C515.314338,223.288262 516.016699,225.589097 516.016699,228.786046 C516.016699,231.982995 515.314338,234.28383 513.909618,235.68855 C512.504898,237.093271 510.204063,237.795631 507.007114,237.795631 C502.744515,237.795631 499.692881,238.740184 497.852213,240.62929 C496.011545,242.518397 495.091211,245.545811 495.091211,249.711533 C495.091211,252.908482 494.388851,255.209317 492.984131,256.614037 C491.579411,258.018758 489.278576,258.721118 486.081627,258.721118 C482.884677,258.721118 480.583843,258.018758 479.179122,256.614037 C477.774402,255.209317 477.072042,252.908482 477.072042,249.711533 C477.072042,246.514584 477.774402,244.213749 479.179122,242.809029 C480.583843,241.404308 482.884677,240.701948 486.081627,240.701948 C490.344226,240.701948 493.395859,239.781614 495.236527,237.940947 C497.077195,236.100279 497.997529,233.048645 497.997529,228.786046 C497.997529,225.589097 498.699889,223.288262 500.104609,221.883542 C501.50933,220.478821 503.810164,219.776461 507.007114,219.776461 Z"
                id="Shape"></path>
            <path
                d="M83.6292903,332.019169 C79.3666911,332.019169 76.3150576,332.939503 74.4743897,334.780171 C72.6337219,336.620839 71.713388,339.672473 71.713388,343.935072 C71.713388,348.197671 72.6337219,351.249305 74.4743897,353.089972 C76.3150576,354.93064 79.3666911,355.850974 83.6292903,355.850974 C86.8262398,355.850974 89.1270746,356.553334 90.5317948,357.958054 C91.936515,359.362775 92.638875,361.663609 92.638875,364.860559 C92.638875,368.057508 91.936515,370.358343 90.5317948,371.763063 C89.1270746,373.167783 86.8262398,373.870144 83.6292903,373.870144 C80.4323409,373.870144 78.1315061,373.167783 76.7267859,371.763063 C75.3220657,370.358343 74.6197056,368.057508 74.6197056,364.860559 C74.6197056,360.59796 73.6751524,357.546326 71.7860459,355.705658 C69.8969394,353.86499 66.8695252,352.944656 62.7038033,352.944656 C59.5068539,352.944656 57.2060191,352.242296 55.8012989,350.837576 C54.3965787,349.432856 53.6942186,347.132021 53.6942186,343.935072 C53.6942186,339.672473 52.7496653,336.620839 50.8605589,334.780171 C48.9714524,332.939503 45.9440382,332.019169 41.7783162,332.019169 C38.5813668,332.019169 36.280532,331.316809 34.8758118,329.912089 C33.4710916,328.507369 32.7687315,326.206534 32.7687315,323.009585 C32.7687315,319.812635 33.4710916,317.5118 34.8758118,316.10708 C36.280532,314.70236 38.5813668,314 41.7783162,314 C44.9752656,314 47.2761004,314.70236 48.6808206,316.10708 C50.0855408,317.5118 50.7879009,319.812635 50.7879009,323.009585 C50.7879009,327.272184 51.7082348,330.323817 53.5489027,332.164485 C55.3895705,334.005153 58.4169847,334.925487 62.6311453,334.925487 C66.8453059,334.925487 69.8969394,334.005153 71.7860459,332.164485 C73.6751524,330.323817 74.6197056,327.272184 74.6197056,323.009585 C74.6197056,319.812635 75.3220657,317.5118 76.7267859,316.10708 C78.1315061,314.70236 80.4323409,314 83.6292903,314 C86.8262398,314 89.1270746,314.70236 90.5317948,316.10708 C91.936515,317.5118 92.638875,319.812635 92.638875,323.009585 C92.638875,326.206534 91.936515,328.507369 90.5317948,329.912089 C89.1270746,331.316809 86.8262398,332.019169 83.6292903,332.019169 Z M69.5336497,329.984747 C68.1773682,331.341029 65.9007527,332.019169 62.7038033,332.019169 C59.5068539,332.019169 57.2060191,331.316809 55.8012989,329.912089 C54.3965787,328.507369 53.6942186,326.206534 53.6942186,323.009585 C53.6942186,319.812635 54.3965787,317.5118 55.8012989,316.10708 C57.2060191,314.70236 59.5068539,314 62.7038033,314 C65.9007527,314 68.2015875,314.70236 69.6063077,316.10708 C71.0110279,317.5118 71.713388,319.812635 71.713388,323.009585 C71.713388,326.206534 70.9868086,328.531588 69.5336497,329.984747 Z M97.5796151,316.179738 C99.0327739,314.726579 101.357828,314 104.554777,314 C107.751727,314 110.052562,314.70236 111.457282,316.10708 C112.862002,317.5118 113.564362,319.812635 113.564362,323.009585 C113.564362,326.206534 112.862002,328.507369 111.457282,329.912089 C110.052562,331.316809 107.751727,332.019169 104.554777,332.019169 C101.357828,332.019169 99.0569932,331.316809 97.652273,329.912089 C96.2475528,328.507369 95.5451927,326.206534 95.5451927,323.009585 C95.5451927,319.812635 96.2233335,317.53602 97.5796151,316.179738 Z M125.480264,314 C128.677214,314 130.978049,314.70236 132.382769,316.10708 C133.787489,317.5118 134.489849,319.812635 134.489849,323.009585 C134.489849,326.206534 133.787489,328.507369 132.382769,329.912089 C130.978049,331.316809 128.677214,332.019169 125.480264,332.019169 C122.283315,332.019169 119.98248,331.316809 118.57776,329.912089 C117.17304,328.507369 116.47068,326.206534 116.47068,323.009585 C116.47068,319.812635 117.17304,317.5118 118.57776,316.10708 C119.98248,314.70236 122.283315,314 125.480264,314 Z M76.654128,399.881687 C78.1072868,398.428528 80.4323409,397.701948 83.6292903,397.701948 C86.8262398,397.701948 89.1270746,398.404308 90.5317948,399.809029 C91.936515,401.213749 92.638875,403.514584 92.638875,406.711533 C92.638875,409.908482 91.936515,412.209317 90.5317948,413.614037 C89.1270746,415.018758 86.8262398,415.721118 83.6292903,415.721118 C80.4323409,415.721118 78.1315061,415.018758 76.7267859,413.614037 C75.3220657,412.209317 74.6197056,409.908482 74.6197056,406.711533 C74.6197056,403.514584 75.2978464,401.237968 76.654128,399.881687 Z M76.654128,378.956199 C78.1072868,377.503041 80.4323409,376.776461 83.6292903,376.776461 C86.8262398,376.776461 89.1270746,377.478821 90.5317948,378.883542 C91.936515,380.288262 92.638875,382.589097 92.638875,385.786046 C92.638875,388.982995 91.936515,391.28383 90.5317948,392.68855 C89.1270746,394.093271 86.8262398,394.795631 83.6292903,394.795631 C80.4323409,394.795631 78.1315061,394.093271 76.7267859,392.68855 C75.3220657,391.28383 74.6197056,388.982995 74.6197056,385.786046 C74.6197056,382.589097 75.2978464,380.312481 76.654128,378.956199 Z"
                id="Shape"></path>
            <path
                d="M250.742555,343.935072 C250.742555,347.132021 250.040195,349.432856 248.635475,350.837576 C247.230755,352.242296 244.92992,352.944656 241.73297,352.944656 C237.470371,352.944656 234.418738,353.86499 232.57807,355.705658 C230.737402,357.546326 229.817068,360.59796 229.817068,364.860559 C229.817068,368.057508 229.114708,370.358343 227.709988,371.763063 C226.305268,373.167783 224.004433,373.870144 220.807483,373.870144 C216.544884,373.870144 213.493251,374.814697 211.652583,376.703803 C209.811915,378.59291 208.891581,381.644543 208.891581,385.858704 C208.891581,390.072864 209.811915,393.100279 211.652583,394.940947 C213.493251,396.781614 216.544884,397.701948 220.807483,397.701948 C224.004433,397.701948 226.305268,398.404308 227.709988,399.809029 C229.114708,401.213749 229.817068,403.514584 229.817068,406.711533 C229.817068,408.358446 229.647533,409.738947 229.308462,410.853036 C228.969392,411.967124 228.412348,412.863239 227.63733,413.541379 C226.281048,414.994538 224.004433,415.721118 220.807483,415.721118 C217.610534,415.721118 215.309699,415.018758 213.904979,413.614037 C212.500259,412.209317 211.797899,409.908482 211.797899,406.711533 C211.797899,402.545811 210.877565,399.518397 209.036897,397.62929 C207.196229,395.740184 204.144596,394.795631 199.881996,394.795631 C196.685047,394.795631 194.384212,394.093271 192.979492,392.68855 C191.574772,391.28383 190.872412,388.982995 190.872412,385.786046 C190.872412,381.620324 189.927858,378.59291 188.038752,376.703803 C186.149645,374.814697 183.098012,373.870144 178.883851,373.870144 C174.669691,373.870144 171.642276,374.814697 169.801609,376.703803 C167.960941,378.59291 167.040607,381.620324 167.040607,385.786046 C167.040607,388.982995 166.338247,391.28383 164.933527,392.68855 C163.528806,394.093271 161.227972,394.795631 158.031022,394.795631 C154.834073,394.795631 152.533238,394.093271 151.128518,392.68855 C149.723798,391.28383 149.021437,388.982995 149.021437,385.786046 C149.021437,382.589097 149.723798,380.288262 151.128518,378.883542 C152.533238,377.478821 154.834073,376.776461 158.031022,376.776461 C162.196744,376.776461 165.224158,375.856127 167.113265,374.015459 C169.002371,372.174792 169.946925,369.123158 169.946925,364.860559 C169.946925,360.59796 169.002371,357.546326 167.113265,355.705658 C165.224158,353.86499 162.196744,352.944656 158.031022,352.944656 C154.834073,352.944656 152.533238,352.242296 151.128518,350.837576 C149.723798,349.432856 149.021437,347.132021 149.021437,343.935072 C149.021437,340.738122 149.723798,338.437288 151.128518,337.032567 C152.533238,335.627847 154.834073,334.925487 158.031022,334.925487 C162.196744,334.925487 165.224158,334.005153 167.113265,332.164485 C169.002371,330.323817 169.946925,327.272184 169.946925,323.009585 C169.946925,319.812635 170.649285,317.5118 172.054005,316.10708 C173.458725,314.70236 175.75956,314 178.956509,314 C182.153459,314 184.454293,314.70236 185.859014,316.10708 C187.263734,317.5118 187.966094,319.812635 187.966094,323.009585 C187.966094,326.206534 187.263734,328.507369 185.859014,329.912089 C184.454293,331.316809 182.153459,332.019169 178.956509,332.019169 C174.69391,332.019169 171.642276,332.939503 169.801609,334.780171 C167.960941,336.620839 167.040607,339.672473 167.040607,343.935072 C167.040607,348.197671 167.960941,351.249305 169.801609,353.089972 C171.642276,354.93064 174.69391,355.850974 178.956509,355.850974 C182.153459,355.850974 184.454293,356.553334 185.859014,357.958054 C187.263734,359.362775 187.966094,361.663609 187.966094,364.860559 L187.966094,364.860559 C187.966094,369.123158 188.886428,372.174792 190.727096,374.015459 C192.567764,375.856127 195.619397,376.776461 199.881996,376.776461 C204.144596,376.776461 207.196229,375.856127 209.036897,374.015459 C210.877565,372.174792 211.797899,369.123158 211.797899,364.860559 C211.797899,361.663609 212.500259,359.362775 213.904979,357.958054 C215.309699,356.553334 217.610534,355.850974 220.807483,355.850974 L220.807483,355.850974 C225.070083,355.850974 228.121716,354.93064 229.962384,353.089972 C231.803052,351.249305 232.723386,348.197671 232.723386,343.935072 C232.723386,339.672473 231.803052,336.620839 229.962384,334.780171 C228.121716,332.939503 225.070083,332.019169 220.807483,332.019169 C217.610534,332.019169 215.309699,331.316809 213.904979,329.912089 C212.500259,328.507369 211.797899,326.206534 211.797899,323.009585 C211.797899,319.812635 212.500259,317.5118 213.904979,316.10708 C215.309699,314.70236 217.610534,314 220.807483,314 C224.004433,314 226.305268,314.70236 227.709988,316.10708 C229.114708,317.5118 229.817068,319.812635 229.817068,323.009585 L229.817068,323.009585 C229.817068,327.272184 230.737402,330.323817 232.57807,332.164485 C234.418738,334.005153 237.470371,334.925487 241.73297,334.925487 C244.92992,334.925487 247.230755,335.627847 248.635475,337.032567 C250.040195,338.437288 250.742555,340.738122 250.742555,343.935072 Z M206.711843,329.984747 C205.355561,331.341029 203.078946,332.019169 199.881996,332.019169 C196.685047,332.019169 194.384212,331.316809 192.979492,329.912089 C191.574772,328.507369 190.872412,326.206534 190.872412,323.009585 C190.872412,319.812635 191.574772,317.5118 192.979492,316.10708 C194.384212,314.70236 196.685047,314 199.881996,314 C203.078946,314 205.379781,314.70236 206.784501,316.10708 C208.189221,317.5118 208.891581,319.812635 208.891581,323.009585 C208.891581,326.206534 208.165002,328.531588 206.711843,329.984747 Z M164.860869,371.835721 C163.504587,373.192003 161.227972,373.870144 158.031022,373.870144 C154.834073,373.870144 152.533238,373.167783 151.128518,371.763063 C149.723798,370.358343 149.021437,368.057508 149.021437,364.860559 C149.021437,361.663609 149.723798,359.362775 151.128518,357.958054 C152.533238,356.553334 154.834073,355.850974 158.031022,355.850974 C161.227972,355.850974 163.528806,356.553334 164.933527,357.958054 C166.338247,359.362775 167.040607,361.663609 167.040607,364.860559 C167.040607,368.057508 166.314027,370.382562 164.860869,371.835721 Z M206.711843,371.835721 C205.355561,373.192003 203.078946,373.870144 199.881996,373.870144 C196.685047,373.870144 194.384212,373.167783 192.979492,371.763063 C191.574772,370.358343 190.872412,368.057508 190.872412,364.860559 C190.872412,361.663609 191.574772,359.362775 192.979492,357.958054 C194.384212,356.553334 196.685047,355.850974 199.881996,355.850974 C203.078946,355.850974 205.379781,356.553334 206.784501,357.958054 C208.189221,359.362775 208.891581,361.663609 208.891581,364.860559 C208.891581,368.057508 208.165002,370.382562 206.711843,371.835721 Z M234.757808,358.030712 C236.210967,356.577554 238.536021,355.850974 241.73297,355.850974 C244.92992,355.850974 247.230755,356.553334 248.635475,357.958054 C250.040195,359.362775 250.742555,361.663609 250.742555,364.860559 C250.742555,368.057508 250.040195,370.358343 248.635475,371.763063 C247.230755,373.167783 244.92992,373.870144 241.73297,373.870144 C238.536021,373.870144 236.235186,373.167783 234.830466,371.763063 C233.425746,370.358343 232.723386,368.057508 232.723386,364.860559 C232.723386,361.663609 233.401526,359.386994 234.757808,358.030712 Z M151.05586,399.881687 C152.509019,398.428528 154.834073,397.701948 158.031022,397.701948 C161.227972,397.701948 163.528806,398.404308 164.933527,399.809029 C166.338247,401.213749 167.040607,403.514584 167.040607,406.711533 C167.040607,409.908482 166.338247,412.209317 164.933527,413.614037 C163.528806,415.018758 161.227972,415.721118 158.031022,415.721118 C154.834073,415.721118 152.533238,415.018758 151.128518,413.614037 C149.723798,412.209317 149.021437,409.908482 149.021437,406.711533 C149.021437,403.514584 149.699578,401.237968 151.05586,399.881687 Z M234.757808,399.881687 C236.210967,398.428528 238.536021,397.701948 241.73297,397.701948 C244.92992,397.701948 247.230755,398.404308 248.635475,399.809029 C250.040195,401.213749 250.742555,403.514584 250.742555,406.711533 C250.742555,409.908482 250.040195,412.209317 248.635475,413.614037 C247.230755,415.018758 244.92992,415.721118 241.73297,415.721118 C238.536021,415.721118 236.235186,415.018758 234.830466,413.614037 C233.425746,412.209317 232.723386,409.908482 232.723386,406.711533 C232.723386,403.514584 233.401526,401.237968 234.757808,399.881687 Z"
                id="Shape"></path>
            <path
                d="M288.234053,316.179738 C289.687212,314.726579 292.012266,314 295.209215,314 C298.406165,314 300.706999,314.70236 302.11172,316.10708 C303.51644,317.5118 304.2188,319.812635 304.2188,323.009585 C304.2188,326.206534 303.51644,328.507369 302.11172,329.912089 C300.706999,331.316809 298.406165,332.019169 295.209215,332.019169 C290.946616,332.019169 287.894982,332.939503 286.054315,334.780171 C284.213647,336.620839 283.293313,339.672473 283.293313,343.935072 C283.293313,347.132021 282.590953,349.432856 281.186233,350.837576 C279.781512,352.242296 277.480678,352.944656 274.283728,352.944656 C271.086779,352.944656 268.785944,352.242296 267.381224,350.837576 C265.976503,349.432856 265.274143,347.132021 265.274143,343.935072 C265.274143,340.738122 265.976503,338.437288 267.381224,337.032567 C268.785944,335.627847 271.086779,334.925487 274.283728,334.925487 C278.44945,334.925487 281.476864,334.005153 283.365971,332.164485 C285.255077,330.323817 286.19963,327.272184 286.19963,323.009585 C286.19963,319.812635 286.877771,317.53602 288.234053,316.179738 Z M309.15954,316.179738 C310.612699,314.726579 312.937753,314 316.134702,314 C319.331652,314 321.632486,314.70236 323.037207,316.10708 C324.441927,317.5118 325.144287,319.812635 325.144287,323.009585 C325.144287,326.206534 324.441927,328.507369 323.037207,329.912089 C321.632486,331.316809 319.331652,332.019169 316.134702,332.019169 C312.937753,332.019169 310.636918,331.316809 309.232198,329.912089 C307.827478,328.507369 307.125118,326.206534 307.125118,323.009585 C307.125118,319.812635 307.803258,317.53602 309.15954,316.179738 Z M337.060189,332.019169 C333.86324,332.019169 331.562405,331.316809 330.157685,329.912089 C328.752965,328.507369 328.050605,326.206534 328.050605,323.009585 C328.050605,319.812635 328.752965,317.5118 330.157685,316.10708 C331.562405,314.70236 333.86324,314 337.060189,314 C340.257139,314 342.557974,314.70236 343.962694,316.10708 C345.367414,317.5118 346.069774,319.812635 346.069774,323.009585 C346.069774,327.272184 346.990108,330.323817 348.830776,332.164485 C350.671444,334.005153 353.723077,334.925487 357.985676,334.925487 C361.182626,334.925487 363.483461,335.627847 364.888181,337.032567 C366.292901,338.437288 366.995261,340.738122 366.995261,343.935072 C366.995261,347.132021 366.292901,349.432856 364.888181,350.837576 C363.483461,352.242296 361.182626,352.944656 357.985676,352.944656 C354.788727,352.944656 352.487892,352.242296 351.083172,350.837576 C349.678452,349.432856 348.976092,347.132021 348.976092,343.935072 C348.976092,339.672473 348.055758,336.620839 346.21509,334.780171 C344.374422,332.939503 341.322789,332.019169 337.060189,332.019169 Z M281.113575,371.835721 C279.757293,373.192003 277.480678,373.870144 274.283728,373.870144 C271.086779,373.870144 268.785944,373.167783 267.381224,371.763063 C265.976503,370.358343 265.274143,368.057508 265.274143,364.860559 C265.274143,361.663609 265.976503,359.362775 267.381224,357.958054 C268.785944,356.553334 271.086779,355.850974 274.283728,355.850974 C277.480678,355.850974 279.781512,356.553334 281.186233,357.958054 C282.590953,359.362775 283.293313,361.663609 283.293313,364.860559 C283.293313,368.057508 282.566733,370.382562 281.113575,371.835721 Z M351.010514,358.030712 C352.463673,356.577554 354.788727,355.850974 357.985676,355.850974 C361.182626,355.850974 363.483461,356.553334 364.888181,357.958054 C366.292901,359.362775 366.995261,361.663609 366.995261,364.860559 C366.995261,368.057508 366.292901,370.358343 364.888181,371.763063 C363.483461,373.167783 361.182626,373.870144 357.985676,373.870144 C354.788727,373.870144 352.487892,373.167783 351.083172,371.763063 C349.678452,370.358343 348.976092,368.057508 348.976092,364.860559 C348.976092,361.663609 349.654232,359.386994 351.010514,358.030712 Z M295.209215,397.701948 C298.406165,397.701948 300.706999,398.404308 302.11172,399.809029 C303.51644,401.213749 304.2188,403.514584 304.2188,406.711533 C304.2188,409.908482 303.51644,412.209317 302.11172,413.614037 C300.706999,415.018758 298.406165,415.721118 295.209215,415.721118 C292.012266,415.721118 289.711431,415.018758 288.306711,413.614037 C286.901991,412.209317 286.19963,409.908482 286.19963,406.711533 C286.19963,402.545811 285.255077,399.518397 283.365971,397.62929 C281.476864,395.740184 278.44945,394.795631 274.283728,394.795631 C271.086779,394.795631 268.785944,394.093271 267.381224,392.68855 C265.976503,391.28383 265.274143,388.982995 265.274143,385.786046 C265.274143,382.589097 265.976503,380.288262 267.381224,378.883542 C268.785944,377.478821 271.086779,376.776461 274.283728,376.776461 C277.480678,376.776461 279.781512,377.478821 281.186233,378.883542 C282.590953,380.288262 283.293313,382.589097 283.293313,385.786046 C283.293313,390.048645 284.213647,393.100279 286.054315,394.940947 C287.894982,396.781614 290.946616,397.701948 295.209215,397.701948 Z M309.15954,399.881687 C310.612699,398.428528 312.937753,397.701948 316.134702,397.701948 C319.331652,397.701948 321.632486,398.404308 323.037207,399.809029 C324.441927,401.213749 325.144287,403.514584 325.144287,406.711533 C325.144287,409.908482 324.441927,412.209317 323.037207,413.614037 C321.632486,415.018758 319.331652,415.721118 316.134702,415.721118 C312.937753,415.721118 310.636918,415.018758 309.232198,413.614037 C307.827478,412.209317 307.125118,409.908482 307.125118,406.711533 C307.125118,403.514584 307.803258,401.237968 309.15954,399.881687 Z M351.010514,378.956199 C352.463673,377.503041 354.788727,376.776461 357.985676,376.776461 C361.182626,376.776461 363.483461,377.478821 364.888181,378.883542 C366.292901,380.288262 366.995261,382.589097 366.995261,385.786046 C366.995261,388.982995 366.292901,391.28383 364.888181,392.68855 C363.483461,394.093271 361.182626,394.795631 357.985676,394.795631 C353.723077,394.795631 350.671444,395.740184 348.830776,397.62929 C346.990108,399.518397 346.069774,402.545811 346.069774,406.711533 C346.069774,408.358446 345.900239,409.738947 345.561168,410.853036 C345.222098,411.967124 344.665054,412.863239 343.890036,413.541379 C342.533754,414.994538 340.257139,415.721118 337.060189,415.721118 C333.86324,415.721118 331.562405,415.018758 330.157685,413.614037 C328.752965,412.209317 328.050605,409.908482 328.050605,406.711533 C328.050605,403.514584 328.752965,401.213749 330.157685,399.809029 C331.562405,398.404308 333.86324,397.701948 337.060189,397.701948 C341.322789,397.701948 344.374422,396.781614 346.21509,394.940947 C348.055758,393.100279 348.976092,390.048645 348.976092,385.786046 C348.976092,382.589097 349.654232,380.312481 351.010514,378.956199 Z"
                id="Shape"></path>
            <path
                d="M397.366281,329.984747 C396.009999,331.341029 393.733383,332.019169 390.536434,332.019169 C387.339485,332.019169 385.03865,331.316809 383.63393,329.912089 C382.229209,328.507369 381.526849,326.206534 381.526849,323.009585 C381.526849,319.812635 382.229209,317.5118 383.63393,316.10708 C385.03865,314.70236 387.339485,314 390.536434,314 C393.733383,314 396.034218,314.70236 397.438938,316.10708 C398.843659,317.5118 399.546019,319.812635 399.546019,323.009585 C399.546019,326.206534 398.819439,328.531588 397.366281,329.984747 Z M397.366281,371.835721 C396.009999,373.192003 393.733383,373.870144 390.536434,373.870144 C387.339485,373.870144 385.03865,373.167783 383.63393,371.763063 C382.229209,370.358343 381.526849,368.057508 381.526849,364.860559 C381.526849,361.663609 382.229209,359.362775 383.63393,357.958054 C385.03865,356.553334 387.339485,355.850974 390.536434,355.850974 C393.733383,355.850974 396.034218,356.553334 397.438938,357.958054 C398.843659,359.362775 399.546019,361.663609 399.546019,364.860559 C399.546019,368.057508 398.819439,370.382562 397.366281,371.835721 Z M474.238382,355.850974 C477.435332,355.850974 479.736167,356.553334 481.140887,357.958054 C482.545607,359.362775 483.247967,361.663609 483.247967,364.860559 C483.247967,368.057508 482.545607,370.358343 481.140887,371.763063 C479.736167,373.167783 477.435332,373.870144 474.238382,373.870144 C469.975783,373.870144 466.92415,374.814697 465.083482,376.703803 C463.242814,378.59291 462.32248,381.620324 462.32248,385.786046 C462.32248,388.982995 461.62012,391.28383 460.2154,392.68855 C458.810679,394.093271 456.509845,394.795631 453.312895,394.795631 C449.050296,394.795631 445.998662,395.740184 444.157995,397.62929 C442.317327,399.518397 441.396993,402.545811 441.396993,406.711533 L441.396993,406.711533 C441.396993,409.908482 440.694633,412.209317 439.289913,413.614037 C437.885192,415.018758 435.584358,415.721118 432.387408,415.721118 C429.190459,415.721118 426.889624,415.018758 425.484904,413.614037 C424.080184,412.209317 423.377823,409.908482 423.377823,406.711533 C423.377823,403.514584 424.080184,401.213749 425.484904,399.809029 C426.889624,398.404308 429.190459,397.701948 432.387408,397.701948 C436.650007,397.701948 439.701641,396.781614 441.542309,394.940947 C443.382977,393.100279 444.303311,390.048645 444.303311,385.786046 C444.303311,382.589097 445.005671,380.288262 446.410391,378.883542 C447.815111,377.478821 450.115946,376.776461 453.312895,376.776461 C457.575494,376.776461 460.627128,375.856127 462.467796,374.015459 C464.308464,372.174792 465.228798,369.123158 465.228798,364.860559 C465.228798,361.663609 465.931158,359.362775 467.335878,357.958054 C468.740598,356.553334 471.041433,355.850974 474.238382,355.850974 Z M397.366281,350.910234 C396.009999,352.266516 393.733383,352.944656 390.536434,352.944656 C387.339485,352.944656 385.03865,352.242296 383.63393,350.837576 C382.229209,349.432856 381.526849,347.132021 381.526849,343.935072 C381.526849,340.738122 382.229209,338.437288 383.63393,337.032567 C385.03865,335.627847 387.339485,334.925487 390.536434,334.925487 C393.733383,334.925487 396.034218,335.627847 397.438938,337.032567 C398.843659,338.437288 399.546019,340.738122 399.546019,343.935072 C399.546019,347.132021 398.819439,349.457075 397.366281,350.910234 Z M383.561272,399.881687 C385.014431,398.428528 387.339485,397.701948 390.536434,397.701948 C393.733383,397.701948 396.034218,398.404308 397.438938,399.809029 C398.843659,401.213749 399.546019,403.514584 399.546019,406.711533 C399.546019,409.908482 398.843659,412.209317 397.438938,413.614037 C396.034218,415.018758 393.733383,415.721118 390.536434,415.721118 C387.339485,415.721118 385.03865,415.018758 383.63393,413.614037 C382.229209,412.209317 381.526849,409.908482 381.526849,406.711533 C381.526849,403.514584 382.20499,401.237968 383.561272,399.881687 Z M411.461921,397.701948 C414.658871,397.701948 416.959705,398.404308 418.364426,399.809029 C419.769146,401.213749 420.471506,403.514584 420.471506,406.711533 C420.471506,409.908482 419.769146,412.209317 418.364426,413.614037 C416.959705,415.018758 414.658871,415.721118 411.461921,415.721118 C408.264972,415.721118 405.964137,415.018758 404.559417,413.614037 C403.154696,412.209317 402.452336,409.908482 402.452336,406.711533 C402.452336,402.545811 401.507783,399.518397 399.618677,397.62929 C397.72957,395.740184 394.702156,394.795631 390.536434,394.795631 C387.339485,394.795631 385.03865,394.093271 383.63393,392.68855 C382.229209,391.28383 381.526849,388.982995 381.526849,385.786046 C381.526849,382.589097 382.229209,380.288262 383.63393,378.883542 C385.03865,377.478821 387.339485,376.776461 390.536434,376.776461 C393.733383,376.776461 396.034218,377.478821 397.438938,378.883542 C398.843659,380.288262 399.546019,382.589097 399.546019,385.786046 C399.546019,390.048645 400.466353,393.100279 402.307021,394.940947 C404.147688,396.781614 407.199322,397.701948 411.461921,397.701948 Z M446.337733,399.881687 C447.790892,398.428528 450.115946,397.701948 453.312895,397.701948 C456.509845,397.701948 458.810679,398.404308 460.2154,399.809029 C461.62012,401.213749 462.32248,403.514584 462.32248,406.711533 C462.32248,409.908482 461.62012,412.209317 460.2154,413.614037 C458.810679,415.018758 456.509845,415.721118 453.312895,415.721118 C450.115946,415.721118 447.815111,415.018758 446.410391,413.614037 C445.005671,412.209317 444.303311,409.908482 444.303311,406.711533 C444.303311,403.514584 444.981451,401.237968 446.337733,399.881687 Z"
                id="Shape"></path>
            <path
                d="M227.927962,473.179738 C229.38112,471.726579 231.706175,471 234.903124,471 C238.100073,471 240.400908,471.70236 241.805628,473.10708 C243.210349,474.5118 243.912709,476.812635 243.912709,480.009585 C243.912709,483.206534 243.210349,485.507369 241.805628,486.912089 C240.400908,488.316809 238.100073,489.019169 234.903124,489.019169 C230.640525,489.019169 227.588891,489.939503 225.748223,491.780171 C223.907556,493.620839 222.987222,496.672473 222.987222,500.935072 C222.987222,504.132021 222.284861,506.432856 220.880141,507.837576 C219.475421,509.242296 217.174586,509.944656 213.977637,509.944656 C210.780687,509.944656 208.479853,509.242296 207.075132,507.837576 C205.670412,506.432856 204.968052,504.132021 204.968052,500.935072 C204.968052,497.738122 205.670412,495.437288 207.075132,494.032567 C208.479853,492.627847 210.780687,491.925487 213.977637,491.925487 C218.143359,491.925487 221.170773,491.005153 223.05988,489.164485 C224.948986,487.323817 225.893539,484.272184 225.893539,480.009585 C225.893539,476.812635 226.57168,474.53602 227.927962,473.179738 Z M248.853449,473.179738 C250.306607,471.726579 252.631662,471 255.828611,471 C259.02556,471 261.326395,471.70236 262.731115,473.10708 C264.135836,474.5118 264.838196,476.812635 264.838196,480.009585 C264.838196,483.206534 264.135836,485.507369 262.731115,486.912089 C261.326395,488.316809 259.02556,489.019169 255.828611,489.019169 C252.631662,489.019169 250.330827,488.316809 248.926107,486.912089 C247.521386,485.507369 246.819026,483.206534 246.819026,480.009585 C246.819026,476.812635 247.497167,474.53602 248.853449,473.179738 Z M248.853449,515.030712 C250.306607,513.577554 252.631662,512.850974 255.828611,512.850974 C259.02556,512.850974 261.326395,513.553334 262.731115,514.958054 C264.135836,516.362775 264.838196,518.663609 264.838196,521.860559 C264.838196,525.057508 264.135836,527.358343 262.731115,528.763063 C261.326395,530.167783 259.02556,530.870144 255.828611,530.870144 C252.631662,530.870144 250.330827,530.167783 248.926107,528.763063 C247.521386,527.358343 246.819026,525.057508 246.819026,521.860559 C246.819026,518.663609 247.497167,516.386994 248.853449,515.030712 Z M297.679585,491.925487 C300.876535,491.925487 303.177369,492.627847 304.58209,494.032567 C305.98681,495.437288 306.68917,497.738122 306.68917,500.935072 C306.68917,504.132021 305.98681,506.432856 304.58209,507.837576 C303.177369,509.242296 300.876535,509.944656 297.679585,509.944656 C293.416986,509.944656 290.365352,510.88921 288.524685,512.778316 C286.684017,514.667423 285.763683,517.694837 285.763683,521.860559 C285.763683,525.057508 285.061323,527.358343 283.656603,528.763063 C282.251882,530.167783 279.951048,530.870144 276.754098,530.870144 C273.557149,530.870144 271.256314,530.167783 269.851594,528.763063 C268.446873,527.358343 267.744513,525.057508 267.744513,521.860559 C267.744513,518.663609 268.446873,516.362775 269.851594,514.958054 C271.256314,513.553334 273.557149,512.850974 276.754098,512.850974 C281.016697,512.850974 284.068331,511.93064 285.908999,510.089972 C287.749667,508.249305 288.67,505.197671 288.67,500.935072 C288.67,496.672473 287.749667,493.620839 285.908999,491.780171 C284.068331,489.939503 281.016697,489.019169 276.754098,489.019169 C273.557149,489.019169 271.256314,488.316809 269.851594,486.912089 C268.446873,485.507369 267.744513,483.206534 267.744513,480.009585 C267.744513,476.812635 268.446873,474.5118 269.851594,473.10708 C271.256314,471.70236 273.557149,471 276.754098,471 C279.951048,471 282.251882,471.70236 283.656603,473.10708 C285.061323,474.5118 285.763683,476.812635 285.763683,480.009585 C285.763683,484.272184 286.684017,487.323817 288.524685,489.164485 C290.365352,491.005153 293.416986,491.925487 297.679585,491.925487 Z M248.853449,556.881687 C250.306607,555.428528 252.631662,554.701948 255.828611,554.701948 C259.02556,554.701948 261.326395,555.404308 262.731115,556.809029 C264.135836,558.213749 264.838196,560.514584 264.838196,563.711533 C264.838196,566.908482 264.135836,569.209317 262.731115,570.614037 C261.326395,572.018758 259.02556,572.721118 255.828611,572.721118 C252.631662,572.721118 250.330827,572.018758 248.926107,570.614037 C247.521386,569.209317 246.819026,566.908482 246.819026,563.711533 C246.819026,560.514584 247.497167,558.237968 248.853449,556.881687 Z"
                id="Shape"></path>
        </g>
    </g>
</svg>