<?xml version="1.0" encoding="UTF-8"?>
<svg viewBox="0 0 800 800" version="1.1" xmlns="http://www.w3.org/2000/svg" xmlns:xlink="http://www.w3.org/1999/xlink">
    <title>1</title>
    <g id="1" stroke="none" stroke-width="1" fill="none" fill-rule="evenodd">
        <path d="M198.987863,86.0445892 L601.012137,86.0445892 C663.388985,86.0445892 713.955411,136.611015 713.955411,198.987863 L713.955411,601.012137 C713.955411,663.388985 663.388985,713.955411 601.012137,713.955411 L198.987863,713.955411 C136.611015,713.955411 86.0445892,663.388985 86.0445892,601.012137 L86.0445892,198.987863 C86.0445892,136.611015 136.611015,86.0445892 198.987863,86.0445892 Z" id="Rectangle" fill="#FAFFF6" transform="translate(400, 400) rotate(-45) translate(-400, -400)"></path>
        <g transform="translate(226.3281, 238)" fill="#222222" fill-rule="nonzero" id="Shape">
            <path d="M129.6,157.5 C129.6,144.3 126.675,134.775 120.825,128.925 C114.975,123.075 105.525,120.15 92.475,120.15 C79.425,120.15 70.05,123.075 64.35,128.925 C58.65,134.775 55.8,144.3 55.8,157.5 C55.8,167.1 53.625,174.075 49.275,178.425 C44.925,182.775 37.8,184.95 27.9,184.95 C18,184.95 10.875,182.775 6.525,178.425 C2.175,174.075 0,167.025 0,157.275 C0,147.525 2.175,140.475 6.525,136.125 C10.875,131.775 18,129.6 27.9,129.6 C40.8,129.6 50.175,126.675 56.025,120.825 C61.875,114.975 64.8,105.6 64.8,92.7 C64.8,82.8 66.975,75.675 71.325,71.325 C75.675,66.975 82.8,64.8 92.7,64.8 C105.6,64.8 114.975,61.875 120.825,56.025 C126.675,50.175 129.6,40.8 129.6,27.9 C129.6,18 131.775,10.875 136.125,6.525 C140.475,2.175 147.6,0 157.5,0 C167.4,0 174.525,2.175 178.875,6.525 C183.225,10.875 185.4,17.925 185.4,27.675 C185.4,37.425 183.225,44.475 178.875,48.825 C174.525,53.175 167.4,55.35 157.5,55.35 C144.3,55.35 134.85,58.275 129.15,64.125 C123.45,69.975 120.6,79.425 120.6,92.475 C120.6,105.525 123.45,114.975 129.15,120.825 C134.85,126.675 144.3,129.6 157.5,129.6 C167.4,129.6 174.525,131.775 178.875,136.125 C183.225,140.475 185.4,147.525 185.4,157.275 C185.4,167.025 183.225,174.075 178.875,178.425 C174.525,182.775 167.4,184.95 157.5,184.95 C147.6,184.95 140.475,182.775 136.125,178.425 C131.775,174.075 129.6,167.1 129.6,157.5 Z M135.9,71.55 C140.4,67.05 147.6,64.8 157.5,64.8 C167.4,64.8 174.525,66.975 178.875,71.325 C183.225,75.675 185.4,82.725 185.4,92.475 C185.4,102.225 183.225,109.275 178.875,113.625 C174.525,117.975 167.4,120.15 157.5,120.15 C147.6,120.15 140.475,117.975 136.125,113.625 C131.775,109.275 129.6,102.225 129.6,92.475 C129.6,82.725 131.7,75.75 135.9,71.55 Z M135.9,265.95 C140.4,261.45 147.6,259.2 157.5,259.2 C167.4,259.2 174.525,261.375 178.875,265.725 C183.225,270.075 185.4,277.2 185.4,287.1 C185.4,297 183.225,304.125 178.875,308.475 C174.525,312.825 167.4,315 157.5,315 C147.6,315 140.475,312.825 136.125,308.475 C131.775,304.125 129.6,297 129.6,287.1 C129.6,277.2 131.7,270.15 135.9,265.95 Z M222.3,259.2 C232.2,259.2 239.325,261.375 243.675,265.725 C248.025,270.075 250.2,277.2 250.2,287.1 C250.2,297 248.025,304.125 243.675,308.475 C239.325,312.825 232.2,315 222.3,315 C212.4,315 205.275,312.825 200.925,308.475 C196.575,304.125 194.4,297 194.4,287.1 C194.4,273.9 191.55,264.45 185.85,258.75 C180.15,253.05 170.7,250.2 157.5,250.2 C144.3,250.2 134.85,253.05 129.15,258.75 C123.45,264.45 120.6,273.9 120.6,287.1 C120.6,297 118.425,304.125 114.075,308.475 C109.725,312.825 102.6,315 92.7,315 C82.8,315 75.675,312.825 71.325,308.475 C66.975,304.125 64.8,297 64.8,287.1 C64.8,277.2 66.975,270.075 71.325,265.725 C75.675,261.375 82.8,259.2 92.7,259.2 C105.6,259.2 114.975,256.275 120.825,250.425 C126.675,244.575 129.6,235.2 129.6,222.3 C129.6,212.4 131.775,205.275 136.125,200.925 C140.475,196.575 147.6,194.4 157.5,194.4 C167.4,194.4 174.525,196.575 178.875,200.925 C183.225,205.275 185.4,212.4 185.4,222.3 C185.4,235.2 188.25,244.575 193.95,250.425 C199.65,256.275 209.1,259.2 222.3,259.2 Z M287.1,259.2 C297,259.2 304.125,261.375 308.475,265.725 C312.825,270.075 315,277.2 315,287.1 C315,297 312.825,304.125 308.475,308.475 C304.125,312.825 297,315 287.1,315 C277.2,315 270.075,312.825 265.725,308.475 C261.375,304.125 259.2,297 259.2,287.1 C259.2,277.2 261.375,270.075 265.725,265.725 C270.075,261.375 277.2,259.2 287.1,259.2 Z"></path>
        </g>
    </g>
</svg>