<?xml version="1.0" encoding="UTF-8"?>
<svg viewBox="0 0 800 800" version="1.1" xmlns="http://www.w3.org/2000/svg" xmlns:xlink="http://www.w3.org/1999/xlink">
    <title>2</title>
    <g id="2" stroke="none" stroke-width="1" fill="none" fill-rule="evenodd">
        <path
            d="M198.987863,86.0445892 L601.012137,86.0445892 C663.388985,86.0445892 713.955411,136.611015 713.955411,198.987863 L713.955411,601.012137 C713.955411,663.388985 663.388985,713.955411 601.012137,713.955411 L198.987863,713.955411 C136.611015,713.955411 86.0445892,663.388985 86.0445892,601.012137 L86.0445892,198.987863 C86.0445892,136.611015 136.611015,86.0445892 198.987863,86.0445892 Z"
            id="Rectangle" fill="#FAFFF6" transform="translate(400, 400) rotate(-45) translate(-400, -400)"></path>
        <g id="1" transform="translate(226.3281, 238)" fill="#222222" fill-rule="nonzero">
            <path
                d="M243.45,49.5 C239.25,53.7 232.2,55.8 222.3,55.8 C212.4,55.8 205.275,53.625 200.925,49.275 C196.575,44.925 194.4,37.8 194.4,27.9 C194.4,18 196.575,10.875 200.925,6.525 C205.275,2.175 212.4,0 222.3,0 C232.2,0 239.325,2.175 243.675,6.525 C248.025,10.875 250.2,18 250.2,27.9 C250.2,37.8 247.95,45 243.45,49.5 Z M250.2,92.7 C250.2,102.6 248.025,109.725 243.675,114.075 C239.325,118.425 232.2,120.6 222.3,120.6 C209.1,120.6 199.65,123.45 193.95,129.15 C188.25,134.85 185.4,144.3 185.4,157.5 C185.4,167.4 183.225,174.525 178.875,178.875 C174.525,183.225 167.4,185.4 157.5,185.4 C144.3,185.4 134.85,188.325 129.15,194.175 C123.45,200.025 120.6,209.475 120.6,222.525 C120.6,235.575 123.45,244.95 129.15,250.65 C134.85,256.35 144.3,259.2 157.5,259.2 C167.4,259.2 174.525,261.375 178.875,265.725 C183.225,270.075 185.4,277.2 185.4,287.1 C185.4,297 183.225,304.125 178.875,308.475 C174.525,312.825 167.4,315 157.5,315 C147.6,315 140.475,312.825 136.125,308.475 C131.775,304.125 129.6,297 129.6,287.1 C129.6,274.2 126.675,264.825 120.825,258.975 C114.975,253.125 105.525,250.2 92.475,250.2 C79.425,250.2 70.05,253.125 64.35,258.975 C58.65,264.825 55.8,274.2 55.8,287.1 C55.8,297 53.625,304.125 49.275,308.475 C44.925,312.825 37.8,315 27.9,315 C18,315 10.875,312.825 6.525,308.475 C2.175,304.125 0,297 0,287.1 C0,277.2 2.175,270.075 6.525,265.725 C10.875,261.375 18,259.2 27.9,259.2 C40.8,259.2 50.175,256.35 56.025,250.65 C61.875,244.95 64.8,235.5 64.8,222.3 C64.8,212.4 66.975,205.275 71.325,200.925 C75.675,196.575 82.8,194.4 92.7,194.4 C105.6,194.4 114.975,191.55 120.825,185.85 C126.675,180.15 129.6,170.7 129.6,157.5 C129.6,147.6 131.775,140.475 136.125,136.125 C140.475,131.775 147.6,129.6 157.5,129.6 C170.7,129.6 180.15,126.75 185.85,121.05 C191.55,115.35 194.4,105.9 194.4,92.7 C194.4,79.5 191.55,70.05 185.85,64.35 C180.15,58.65 170.7,55.8 157.5,55.8 C144.3,55.8 134.85,58.65 129.15,64.35 C123.45,70.05 120.6,79.5 120.6,92.7 C120.6,102.6 118.425,109.725 114.075,114.075 C109.725,118.425 102.6,120.6 92.7,120.6 C82.8,120.6 75.675,118.425 71.325,114.075 C66.975,109.725 64.8,102.6 64.8,92.7 C64.8,82.8 66.975,75.675 71.325,71.325 C75.675,66.975 82.8,64.8 92.7,64.8 C105.6,64.8 114.975,61.95 120.825,56.25 C126.675,50.55 129.6,41.1 129.6,27.9 C129.6,18 131.775,10.875 136.125,6.525 C140.475,2.175 147.6,0 157.5,0 C167.4,0 174.525,2.175 178.875,6.525 C183.225,10.875 185.4,18 185.4,27.9 C185.4,41.1 188.25,50.55 193.95,56.25 C199.65,61.95 209.1,64.8 222.3,64.8 C232.2,64.8 239.325,66.975 243.675,71.325 C248.025,75.675 250.2,82.8 250.2,92.7 Z M71.1,265.95 C75.6,261.45 82.8,259.2 92.7,259.2 C102.6,259.2 109.725,261.375 114.075,265.725 C118.425,270.075 120.6,277.2 120.6,287.1 C120.6,297 118.425,304.125 114.075,308.475 C109.725,312.825 102.6,315 92.7,315 C82.8,315 75.675,312.825 71.325,308.475 C66.975,304.125 64.8,297 64.8,287.1 C64.8,277.2 66.9,270.15 71.1,265.95 Z M287.1,194.4 C297,194.4 304.125,196.575 308.475,200.925 C312.825,205.275 315,212.4 315,222.3 C315,232.2 312.825,239.325 308.475,243.675 C304.125,248.025 297,250.2 287.1,250.2 C273.9,250.2 264.45,253.125 258.75,258.975 C253.05,264.825 250.2,274.2 250.2,287.1 C250.2,297 248.025,304.125 243.675,308.475 C239.325,312.825 232.2,315 222.3,315 C212.4,315 205.275,312.825 200.925,308.475 C196.575,304.125 194.4,297 194.4,287.1 C194.4,277.2 196.575,270.075 200.925,265.725 C205.275,261.375 212.4,259.2 222.3,259.2 C235.5,259.2 244.95,256.35 250.65,250.65 C256.35,244.95 259.2,235.5 259.2,222.3 C259.2,212.4 261.375,205.275 265.725,200.925 C270.075,196.575 277.2,194.4 287.1,194.4 Z"
                id="Shape"></path>
        </g>
    </g>
</svg>