<?xml version="1.0" encoding="UTF-8"?>
<svg viewBox="0 0 800 800" version="1.1" xmlns="http://www.w3.org/2000/svg" xmlns:xlink="http://www.w3.org/1999/xlink">
    <title>3</title>
    <g id="3" stroke="none" stroke-width="1" fill="none" fill-rule="evenodd">
        <path
            d="M198.987863,86.0445892 L601.012137,86.0445892 C663.388985,86.0445892 713.955411,136.611015 713.955411,198.987863 L713.955411,601.012137 C713.955411,663.388985 663.388985,713.955411 601.012137,713.955411 L198.987863,713.955411 C136.611015,713.955411 86.0445892,663.388985 86.0445892,601.012137 L86.0445892,198.987863 C86.0445892,136.611015 136.611015,86.0445892 198.987863,86.0445892 Z"
            id="Rectangle" fill="#FAFFF6" transform="translate(400, 400) rotate(-45) translate(-400, -400)"></path>
        <g id="1" transform="translate(226.3281, 238)" fill="#222222" fill-rule="nonzero">
            <path
                d="M135.9,6.75 C140.4,2.25 147.6,0 157.5,0 C167.4,0 174.525,2.175 178.875,6.525 C183.225,10.875 185.4,17.925 185.4,27.675 C185.4,37.425 183.225,44.475 178.875,48.825 C174.525,53.175 167.4,55.35 157.5,55.35 C144.3,55.35 134.85,58.275 129.15,64.125 C123.45,69.975 120.6,79.5 120.6,92.7 C120.6,102.3 118.425,109.275 114.075,113.625 C109.725,117.975 102.6,120.15 92.7,120.15 C82.8,120.15 75.675,117.975 71.325,113.625 C66.975,109.275 64.8,102.225 64.8,92.475 C64.8,82.725 66.975,75.675 71.325,71.325 C75.675,66.975 82.8,64.8 92.7,64.8 C105.6,64.8 114.975,61.875 120.825,56.025 C126.675,50.175 129.6,40.8 129.6,27.9 C129.6,18 131.7,10.95 135.9,6.75 Z M135.9,136.35 C140.4,131.85 147.6,129.6 157.5,129.6 C167.4,129.6 174.525,131.775 178.875,136.125 C183.225,140.475 185.4,147.525 185.4,157.275 C185.4,167.025 183.225,174.075 178.875,178.425 C174.525,182.775 167.4,184.95 157.5,184.95 C147.6,184.95 140.475,182.775 136.125,178.425 C131.775,174.075 129.6,167.025 129.6,157.275 C129.6,147.525 131.7,140.55 135.9,136.35 Z M92.7,259.2 C102.6,259.2 109.725,261.375 114.075,265.725 C118.425,270.075 120.6,277.2 120.6,287.1 C120.6,297 118.425,304.125 114.075,308.475 C109.725,312.825 102.6,315 92.7,315 C82.8,315 75.675,312.825 71.325,308.475 C66.975,304.125 64.8,297 64.8,287.1 C64.8,273.9 61.875,264.45 56.025,258.75 C50.175,253.05 40.8,250.2 27.9,250.2 C18,250.2 10.875,247.95 6.525,243.45 C2.175,238.95 0,231.825 0,222.075 C0,212.325 2.175,205.275 6.525,200.925 C10.875,196.575 18,194.4 27.9,194.4 C37.8,194.4 44.925,196.575 49.275,200.925 C53.625,205.275 55.8,212.4 55.8,222.3 C55.8,235.2 58.65,244.575 64.35,250.425 C70.05,256.275 79.5,259.2 92.7,259.2 Z M135.9,265.95 C140.4,261.45 147.6,259.2 157.5,259.2 C167.4,259.2 174.525,261.375 178.875,265.725 C183.225,270.075 185.4,277.2 185.4,287.1 C185.4,297 183.225,304.125 178.875,308.475 C174.525,312.825 167.4,315 157.5,315 C147.6,315 140.475,312.825 136.125,308.475 C131.775,304.125 129.6,297 129.6,287.1 C129.6,277.2 131.7,270.15 135.9,265.95 Z M287.1,194.4 C297,194.4 304.125,196.575 308.475,200.925 C312.825,205.275 315,212.325 315,222.075 C315,231.825 312.825,238.95 308.475,243.45 C304.125,247.95 297,250.2 287.1,250.2 C273.9,250.2 264.45,253.05 258.75,258.75 C253.05,264.45 250.2,273.9 250.2,287.1 C250.2,297 248.025,304.125 243.675,308.475 C239.325,312.825 232.2,315 222.3,315 C212.4,315 205.275,312.825 200.925,308.475 C196.575,304.125 194.4,297 194.4,287.1 C194.4,277.2 196.575,270.075 200.925,265.725 C205.275,261.375 212.4,259.2 222.3,259.2 C235.5,259.2 244.95,256.275 250.65,250.425 C256.35,244.575 259.2,235.125 259.2,222.075 C259.2,209.025 256.35,199.575 250.65,193.725 C244.95,187.875 235.5,184.95 222.3,184.95 C212.4,184.95 205.275,182.775 200.925,178.425 C196.575,174.075 194.4,167.025 194.4,157.275 C194.4,147.525 196.575,140.475 200.925,136.125 C205.275,131.775 212.4,129.6 222.3,129.6 C235.5,129.6 244.95,126.675 250.65,120.825 C256.35,114.975 259.2,105.525 259.2,92.475 C259.2,79.425 256.35,69.975 250.65,64.125 C244.95,58.275 235.5,55.35 222.3,55.35 C212.4,55.35 205.275,53.175 200.925,48.825 C196.575,44.475 194.4,37.425 194.4,27.675 C194.4,17.925 196.575,10.875 200.925,6.525 C205.275,2.175 212.4,0 222.3,0 C232.2,0 239.325,2.175 243.675,6.525 C248.025,10.875 250.2,18 250.2,27.9 C250.2,40.8 253.05,50.175 258.75,56.025 C264.45,61.875 273.9,64.8 287.1,64.8 C297,64.8 304.125,66.975 308.475,71.325 C312.825,75.675 315,82.725 315,92.475 C315,102.225 312.825,109.275 308.475,113.625 C304.125,117.975 297,120.15 287.1,120.15 C273.9,120.15 264.45,123.075 258.75,128.925 C253.05,134.775 250.2,144.225 250.2,157.275 C250.2,170.325 253.05,179.775 258.75,185.625 C264.45,191.475 273.9,194.4 287.1,194.4 Z"
                id="Shape"></path>
        </g>
    </g>
</svg>