<?xml version="1.0" encoding="UTF-8"?>
<svg width="800px" height="800px" viewBox="0 0 800 800" version="1.1" xmlns="http://www.w3.org/2000/svg" xmlns:xlink="http://www.w3.org/1999/xlink">
    <title>4</title>
    <g id="4" stroke="none" stroke-width="1" fill="none" fill-rule="evenodd">
        <path d="M198.987863,86.0445892 L601.012137,86.0445892 C663.388985,86.0445892 713.955411,136.611015 713.955411,198.987863 L713.955411,601.012137 C713.955411,663.388985 663.388985,713.955411 601.012137,713.955411 L198.987863,713.955411 C136.611015,713.955411 86.0445892,663.388985 86.0445892,601.012137 L86.0445892,198.987863 C86.0445892,136.611015 136.611015,86.0445892 198.987863,86.0445892 Z" id="Rectangle" fill="#FAFFF6" transform="translate(400, 400) rotate(-45) translate(-400, -400)"></path>
        <g id="1" transform="translate(226.1031, 238)" fill="#222222" fill-rule="nonzero">
            <path d="M243.45,49.5 C239.25,53.7 232.2,55.8 222.3,55.8 C212.4,55.8 205.275,53.625 200.925,49.275 C196.575,44.925 194.4,37.875 194.4,28.125 C194.4,18.375 196.575,11.25 200.925,6.75 C205.275,2.25 212.4,0 222.3,0 C232.2,0 239.325,2.25 243.675,6.75 C248.025,11.25 250.2,18.375 250.2,28.125 C250.2,37.875 247.95,45 243.45,49.5 Z M287.1,130.05 C297,130.05 304.125,132.225 308.475,136.575 C312.825,140.925 315,147.975 315,157.725 C315,167.475 312.825,174.525 308.475,178.875 C304.125,183.225 297,185.4 287.1,185.4 C273.9,185.4 264.45,188.325 258.75,194.175 C253.05,200.025 250.2,209.4 250.2,222.3 C250.2,232.2 248.025,239.325 243.675,243.675 C239.325,248.025 232.2,250.2 222.3,250.2 C212.4,250.2 205.275,248.025 200.925,243.675 C196.575,239.325 194.4,232.275 194.4,222.525 C194.4,212.775 196.575,205.725 200.925,201.375 C205.275,197.025 212.4,194.85 222.3,194.85 C235.5,194.85 244.95,191.925 250.65,186.075 C256.35,180.225 259.2,170.775 259.2,157.725 C259.2,144.675 256.35,135.225 250.65,129.375 C244.95,123.525 235.5,120.6 222.3,120.6 C212.4,120.6 205.275,118.425 200.925,114.075 C196.575,109.725 194.4,102.6 194.4,92.7 C194.4,79.8 191.55,70.425 185.85,64.575 C180.15,58.725 170.7,55.8 157.5,55.8 C144.3,55.8 134.85,58.725 129.15,64.575 C123.45,70.425 120.6,79.8 120.6,92.7 C120.6,102.6 118.425,109.725 114.075,114.075 C109.725,118.425 102.6,120.6 92.7,120.6 L92.7,120.6 C79.5,120.6 70.05,123.525 64.35,129.375 C58.65,135.225 55.8,144.675 55.8,157.725 C55.8,170.775 58.65,180.225 64.35,186.075 C70.05,191.925 79.5,194.85 92.7,194.85 C102.6,194.85 109.725,197.025 114.075,201.375 C118.425,205.725 120.6,212.775 120.6,222.525 C120.6,232.275 118.425,239.325 114.075,243.675 C109.725,248.025 102.6,250.2 92.7,250.2 C82.8,250.2 75.675,248.025 71.325,243.675 C66.975,239.325 64.8,232.2 64.8,222.3 C64.8,209.4 61.875,200.025 56.025,194.175 C50.175,188.325 40.8,185.4 27.9,185.4 C18,185.4 10.875,183.225 6.525,178.875 C2.175,174.525 0,167.475 0,157.725 C0,147.975 2.175,140.925 6.525,136.575 C10.875,132.225 18,130.05 27.9,130.05 C40.8,130.05 50.175,127.125 56.025,121.275 C61.875,115.425 64.8,105.9 64.8,92.7 C64.8,83.1 66.975,76.125 71.325,71.775 C75.675,67.425 82.8,65.25 92.7,65.25 C105.6,65.25 114.975,62.325 120.825,56.475 C126.675,50.625 129.6,41.1 129.6,27.9 C129.6,18.3 131.775,11.25 136.125,6.75 C140.475,2.25 147.6,0 157.5,0 C167.4,0 174.525,2.25 178.875,6.75 C183.225,11.25 185.4,18.3 185.4,27.9 C185.4,41.1 188.25,50.625 193.95,56.475 C199.65,62.325 209.1,65.25 222.3,65.25 C232.2,65.25 239.325,67.425 243.675,71.775 C248.025,76.125 250.2,83.1 250.2,92.7 C250.2,105.9 253.05,115.425 258.75,121.275 C264.45,127.125 273.9,130.05 287.1,130.05 Z M222.3,259.65 C232.2,259.65 239.325,261.825 243.675,266.175 C248.025,270.525 250.2,277.575 250.2,287.325 C250.2,297.075 248.025,304.125 243.675,308.475 C239.325,312.825 232.2,315 222.3,315 C212.4,315 205.275,312.825 200.925,308.475 C196.575,304.125 194.4,297 194.4,287.1 C194.4,274.2 191.55,264.825 185.85,258.975 C180.15,253.125 170.7,250.2 157.5,250.2 C147.6,250.2 140.475,248.025 136.125,243.675 C131.775,239.325 129.6,232.275 129.6,222.525 C129.6,212.775 131.775,205.725 136.125,201.375 C140.475,197.025 147.6,194.85 157.5,194.85 C170.7,194.85 180.15,191.925 185.85,186.075 C191.55,180.225 194.4,170.7 194.4,157.5 C194.4,147.9 196.575,140.925 200.925,136.575 C205.275,132.225 212.4,130.05 222.3,130.05 C232.2,130.05 239.325,132.225 243.675,136.575 C248.025,140.925 250.2,147.975 250.2,157.725 C250.2,167.475 248.025,174.525 243.675,178.875 C239.325,183.225 232.2,185.4 222.3,185.4 C209.1,185.4 199.65,188.325 193.95,194.175 C188.25,200.025 185.4,209.475 185.4,222.525 C185.4,235.575 188.25,245.025 193.95,250.875 C199.65,256.725 209.1,259.65 222.3,259.65 Z M6.3,201.6 C10.8,197.1 18,194.85 27.9,194.85 C37.8,194.85 44.925,197.025 49.275,201.375 C53.625,205.725 55.8,212.775 55.8,222.525 C55.8,232.275 53.625,239.325 49.275,243.675 C44.925,248.025 37.8,250.2 27.9,250.2 C18,250.2 10.875,248.025 6.525,243.675 C2.175,239.325 0,232.275 0,222.525 C0,212.775 2.1,205.8 6.3,201.6 Z" id="Shape"></path>
        </g>
    </g>
</svg>