<?xml version="1.0" encoding="UTF-8"?>
<svg viewBox="0 0 800 800" version="1.1" xmlns="http://www.w3.org/2000/svg" xmlns:xlink="http://www.w3.org/1999/xlink">
    <title>5</title>
    <g id="5" stroke="none" stroke-width="1" fill="none" fill-rule="evenodd">
        <path
            d="M198.987863,86.0445892 L601.012137,86.0445892 C663.388985,86.0445892 713.955411,136.611015 713.955411,198.987863 L713.955411,601.012137 C713.955411,663.388985 663.388985,713.955411 601.012137,713.955411 L198.987863,713.955411 C136.611015,713.955411 86.0445892,663.388985 86.0445892,601.012137 L86.0445892,198.987863 C86.0445892,136.611015 136.611015,86.0445892 198.987863,86.0445892 Z"
            id="Rectangle" fill="#FAFFF6" transform="translate(400, 400) rotate(-45) translate(-400, -400)"></path>
        <g id="1" transform="translate(226.3281, 238)" fill="#222222" fill-rule="nonzero">
            <path
                d="M157.5,55.8 C144.3,55.8 134.85,58.65 129.15,64.35 C123.45,70.05 120.6,79.5 120.6,92.7 C120.6,105.9 123.45,115.35 129.15,121.05 C134.85,126.75 144.3,129.6 157.5,129.6 C167.4,129.6 174.525,131.775 178.875,136.125 C183.225,140.475 185.4,147.6 185.4,157.5 C185.4,167.4 183.225,174.525 178.875,178.875 C174.525,183.225 167.4,185.4 157.5,185.4 C147.6,185.4 140.475,183.225 136.125,178.875 C131.775,174.525 129.6,167.4 129.6,157.5 C129.6,144.3 126.675,134.85 120.825,129.15 C114.975,123.45 105.6,120.6 92.7,120.6 C82.8,120.6 75.675,118.425 71.325,114.075 C66.975,109.725 64.8,102.6 64.8,92.7 C64.8,82.8 66.975,75.675 71.325,71.325 C75.675,66.975 82.8,64.8 92.7,64.8 C105.6,64.8 114.975,61.95 120.825,56.25 C126.675,50.55 129.6,41.1 129.6,27.9 C129.6,18 131.775,10.875 136.125,6.525 C140.475,2.175 147.6,0 157.5,0 C167.4,0 174.525,2.175 178.875,6.525 C183.225,10.875 185.4,18 185.4,27.9 C185.4,37.8 183.225,44.925 178.875,49.275 C174.525,53.625 167.4,55.8 157.5,55.8 Z M113.85,49.5 C109.65,53.7 102.6,55.8 92.7,55.8 C82.8,55.8 75.675,53.625 71.325,49.275 C66.975,44.925 64.8,37.8 64.8,27.9 C64.8,18 66.975,10.875 71.325,6.525 C75.675,2.175 82.8,0 92.7,0 C102.6,0 109.725,2.175 114.075,6.525 C118.425,10.875 120.6,18 120.6,27.9 C120.6,37.8 118.35,45 113.85,49.5 Z M243.45,49.5 C239.25,53.7 232.2,55.8 222.3,55.8 C212.4,55.8 205.275,53.625 200.925,49.275 C196.575,44.925 194.4,37.8 194.4,27.9 C194.4,18 196.575,10.875 200.925,6.525 C205.275,2.175 212.4,0 222.3,0 C232.2,0 239.325,2.175 243.675,6.525 C248.025,10.875 250.2,18 250.2,27.9 C250.2,37.8 247.95,45 243.45,49.5 Z M308.25,49.5 C304.05,53.7 297,55.8 287.1,55.8 C277.2,55.8 270.075,53.625 265.725,49.275 C261.375,44.925 259.2,37.8 259.2,27.9 C259.2,18 261.375,10.875 265.725,6.525 C270.075,2.175 277.2,0 287.1,0 C297,0 304.125,2.175 308.475,6.525 C312.825,10.875 315,18 315,27.9 C315,37.8 312.75,45 308.25,49.5 Z M265.5,136.35 C270,131.85 277.2,129.6 287.1,129.6 C297,129.6 304.125,131.775 308.475,136.125 C312.825,140.475 315,147.6 315,157.5 C315,167.4 312.825,174.525 308.475,178.875 C304.125,183.225 297,185.4 287.1,185.4 C277.2,185.4 270.075,183.225 265.725,178.875 C261.375,174.525 259.2,167.4 259.2,157.5 C259.2,147.6 261.3,140.55 265.5,136.35 Z M92.7,259.2 C102.6,259.2 109.725,261.375 114.075,265.725 C118.425,270.075 120.6,277.2 120.6,287.1 C120.6,297 118.425,304.125 114.075,308.475 C109.725,312.825 102.6,315 92.7,315 C82.8,315 75.675,312.825 71.325,308.475 C66.975,304.125 64.8,297 64.8,287.1 C64.8,274.2 61.875,264.825 56.025,258.975 C50.175,253.125 40.8,250.2 27.9,250.2 C18,250.2 10.875,248.025 6.525,243.675 C2.175,239.325 0,232.2 0,222.3 C0,212.4 2.175,205.275 6.525,200.925 C10.875,196.575 18,194.4 27.9,194.4 C37.8,194.4 44.925,196.575 49.275,200.925 C53.625,205.275 55.8,212.4 55.8,222.3 C55.8,235.5 58.65,244.95 64.35,250.65 C70.05,256.35 79.5,259.2 92.7,259.2 Z M135.9,265.95 C140.4,261.45 147.6,259.2 157.5,259.2 C167.4,259.2 174.525,261.375 178.875,265.725 C183.225,270.075 185.4,277.2 185.4,287.1 C185.4,297 183.225,304.125 178.875,308.475 C174.525,312.825 167.4,315 157.5,315 C147.6,315 140.475,312.825 136.125,308.475 C131.775,304.125 129.6,297 129.6,287.1 C129.6,277.2 131.7,270.15 135.9,265.95 Z M287.1,194.4 C297,194.4 304.125,196.575 308.475,200.925 C312.825,205.275 315,212.4 315,222.3 C315,232.2 312.825,239.325 308.475,243.675 C304.125,248.025 297,250.2 287.1,250.2 C273.9,250.2 264.45,253.125 258.75,258.975 C253.05,264.825 250.2,274.2 250.2,287.1 C250.2,297 248.025,304.125 243.675,308.475 C239.325,312.825 232.2,315 222.3,315 C212.4,315 205.275,312.825 200.925,308.475 C196.575,304.125 194.4,297 194.4,287.1 C194.4,277.2 196.575,270.075 200.925,265.725 C205.275,261.375 212.4,259.2 222.3,259.2 C235.5,259.2 244.95,256.35 250.65,250.65 C256.35,244.95 259.2,235.575 259.2,222.525 C259.2,209.475 256.35,200.025 250.65,194.175 C244.95,188.325 235.5,185.4 222.3,185.4 C212.4,185.4 205.275,183.225 200.925,178.875 C196.575,174.525 194.4,167.4 194.4,157.5 C194.4,147.6 196.575,140.475 200.925,136.125 C205.275,131.775 212.4,129.6 222.3,129.6 C232.2,129.6 239.325,131.775 243.675,136.125 C248.025,140.475 250.2,147.6 250.2,157.5 C250.2,170.7 253.05,180.15 258.75,185.85 C264.45,191.55 273.9,194.4 287.1,194.4 Z"
                id="Shape"></path>
        </g>
    </g>
</svg>