<?xml version="1.0" encoding="UTF-8"?>
<svg width="800px" height="800px" viewBox="0 0 800 800" version="1.1" xmlns="http://www.w3.org/2000/svg" xmlns:xlink="http://www.w3.org/1999/xlink">
    <title>6</title>
    <g id="6" stroke="none" stroke-width="1" fill="none" fill-rule="evenodd">
        <path d="M198.987863,86.0445892 L601.012137,86.0445892 C663.388985,86.0445892 713.955411,136.611015 713.955411,198.987863 L713.955411,601.012137 C713.955411,663.388985 663.388985,713.955411 601.012137,713.955411 L198.987863,713.955411 C136.611015,713.955411 86.0445892,663.388985 86.0445892,601.012137 L86.0445892,198.987863 C86.0445892,136.611015 136.611015,86.0445892 198.987863,86.0445892 Z" id="Rectangle" fill="#FAFFF6" transform="translate(400, 400) rotate(-45) translate(-400, -400)"></path>
        <g id="1" transform="translate(226.3281, 238)" fill="#222222" fill-rule="nonzero">
            <path d="M92.7,185.4 C79.5,185.4 70.05,188.325 64.35,194.175 C58.65,200.025 55.8,209.475 55.8,222.525 C55.8,235.575 58.65,245.025 64.35,250.875 C70.05,256.725 79.5,259.65 92.7,259.65 C102.6,259.65 109.725,261.825 114.075,266.175 C118.425,270.525 120.6,277.575 120.6,287.325 C120.6,297.075 118.425,304.125 114.075,308.475 C109.725,312.825 102.6,315 92.7,315 C82.8,315 75.675,312.825 71.325,308.475 C66.975,304.125 64.8,297 64.8,287.1 C64.8,274.2 61.875,264.825 56.025,258.975 C50.175,253.125 40.8,250.2 27.9,250.2 C18,250.2 10.875,248.025 6.525,243.675 C2.175,239.325 0,232.275 0,222.525 C0,212.775 2.175,205.725 6.525,201.375 C10.875,197.025 18,194.85 27.9,194.85 C40.8,194.85 50.175,191.925 56.025,186.075 C61.875,180.225 64.8,170.7 64.8,157.5 C64.8,147.9 66.975,140.925 71.325,136.575 C75.675,132.225 82.8,130.05 92.7,130.05 C102.6,130.05 109.725,132.225 114.075,136.575 C118.425,140.925 120.6,147.975 120.6,157.725 C120.6,167.475 118.425,174.525 114.075,178.875 C109.725,183.225 102.6,185.4 92.7,185.4 Z M157.5,55.8 C144.3,55.8 134.85,58.725 129.15,64.575 C123.45,70.425 120.6,79.875 120.6,92.925 C120.6,105.975 123.45,115.425 129.15,121.275 C134.85,127.125 144.3,130.05 157.5,130.05 C167.4,130.05 174.525,132.225 178.875,136.575 C183.225,140.925 185.4,147.975 185.4,157.725 C185.4,167.475 183.225,174.525 178.875,178.875 C174.525,183.225 167.4,185.4 157.5,185.4 C147.6,185.4 140.475,183.225 136.125,178.875 C131.775,174.525 129.6,167.4 129.6,157.5 C129.6,144.6 126.675,135.225 120.825,129.375 C114.975,123.525 105.525,120.6 92.475,120.6 C79.425,120.6 70.05,123.525 64.35,129.375 C58.65,135.225 55.8,144.6 55.8,157.5 C55.8,167.4 53.625,174.525 49.275,178.875 C44.925,183.225 37.8,185.4 27.9,185.4 C18,185.4 10.875,183.225 6.525,178.875 C2.175,174.525 0,167.475 0,157.725 C0,147.975 2.175,140.925 6.525,136.575 C10.875,132.225 18,130.05 27.9,130.05 C40.8,130.05 50.175,127.125 56.025,121.275 C61.875,115.425 64.8,105.9 64.8,92.7 C64.8,83.1 66.975,76.125 71.325,71.775 C75.675,67.425 82.8,65.25 92.7,65.25 C105.6,65.25 114.975,62.325 120.825,56.475 C126.675,50.625 129.6,41.1 129.6,27.9 C129.6,18.3 131.775,11.25 136.125,6.75 C140.475,2.25 147.6,0 157.5,0 C167.4,0 174.525,2.25 178.875,6.75 C183.225,11.25 185.4,18.375 185.4,28.125 C185.4,37.875 183.225,44.925 178.875,49.275 C174.525,53.625 167.4,55.8 157.5,55.8 Z M135.9,266.4 C140.4,261.9 147.6,259.65 157.5,259.65 C167.4,259.65 174.525,261.825 178.875,266.175 C183.225,270.525 185.4,277.575 185.4,287.325 C185.4,297.075 183.225,304.125 178.875,308.475 C174.525,312.825 167.4,315 157.5,315 C147.6,315 140.475,312.825 136.125,308.475 C131.775,304.125 129.6,297.075 129.6,287.325 C129.6,277.575 131.7,270.6 135.9,266.4 Z M287.1,194.85 C297,194.85 304.125,197.025 308.475,201.375 C312.825,205.725 315,212.775 315,222.525 C315,232.275 312.825,239.325 308.475,243.675 C304.125,248.025 297,250.2 287.1,250.2 C273.9,250.2 264.45,253.125 258.75,258.975 C253.05,264.825 250.2,274.2 250.2,287.1 C250.2,297 248.025,304.125 243.675,308.475 C239.325,312.825 232.2,315 222.3,315 C212.4,315 205.275,312.825 200.925,308.475 C196.575,304.125 194.4,297.075 194.4,287.325 C194.4,277.575 196.575,270.525 200.925,266.175 C205.275,261.825 212.4,259.65 222.3,259.65 C235.5,259.65 244.95,256.725 250.65,250.875 C256.35,245.025 259.2,235.575 259.2,222.525 C259.2,209.475 256.35,200.025 250.65,194.175 C244.95,188.325 235.5,185.4 222.3,185.4 C212.4,185.4 205.275,183.225 200.925,178.875 C196.575,174.525 194.4,167.475 194.4,157.725 C194.4,147.975 196.575,140.925 200.925,136.575 C205.275,132.225 212.4,130.05 222.3,130.05 C232.2,130.05 239.325,132.225 243.675,136.575 C248.025,140.925 250.2,147.9 250.2,157.5 C250.2,170.7 253.05,180.225 258.75,186.075 C264.45,191.925 273.9,194.85 287.1,194.85 Z" id="Shape"></path>
        </g>
    </g>
</svg>