<?xml version="1.0" encoding="UTF-8"?>
<svg viewBox="0 0 800 800" version="1.1" xmlns="http://www.w3.org/2000/svg" xmlns:xlink="http://www.w3.org/1999/xlink">
    <title>7 copy</title>
    <g id="7-copy" stroke="none" stroke-width="1" fill="none" fill-rule="evenodd">
        <path d="M198.987863,86.0445892 L601.012137,86.0445892 C663.388985,86.0445892 713.955411,136.611015 713.955411,198.987863 L713.955411,601.012137 C713.955411,663.388985 663.388985,713.955411 601.012137,713.955411 L198.987863,713.955411 C136.611015,713.955411 86.0445892,663.388985 86.0445892,601.012137 L86.0445892,198.987863 C86.0445892,136.611015 136.611015,86.0445892 198.987863,86.0445892 Z" id="Rectangle" fill="#FAFFF6" transform="translate(400, 400) rotate(-45) translate(-400, -400)"></path>
        <g id="9" transform="translate(239.35, 231.7)" fill="#222222" fill-rule="nonzero">
            <path d="M94.554,56.916 C81.09,56.916 71.451,59.823 65.637,65.637 C59.823,71.451 56.916,81.0135 56.916,94.3245 C56.916,107.6355 59.823,117.2745 65.637,123.2415 C71.451,129.2085 81.09,132.192 94.554,132.192 C104.652,132.192 111.9195,134.4105 116.3565,138.8475 C120.7935,143.2845 123.012,150.552 123.012,160.65 C123.012,170.748 120.7935,178.0155 116.3565,182.4525 C111.9195,186.8895 104.652,189.108 94.554,189.108 C84.456,189.108 77.1885,186.8895 72.7515,182.4525 C68.3145,178.0155 66.096,170.748 66.096,160.65 C66.096,147.186 63.1125,137.547 57.1455,131.733 C51.1785,125.919 41.616,123.012 28.458,123.012 C18.36,123.012 11.0925,120.7935 6.6555,116.3565 C2.2185,111.9195 0,104.652 0,94.554 C0,84.456 2.2185,77.1885 6.6555,72.7515 C11.0925,68.3145 18.36,66.096 28.458,66.096 C41.616,66.096 51.1785,63.1125 57.1455,57.1455 C63.1125,51.1785 66.096,41.616 66.096,28.458 C66.096,18.36 68.3145,11.0925 72.7515,6.6555 C77.1885,2.2185 84.456,-5.68434189e-14 94.554,-5.68434189e-14 C104.652,-5.68434189e-14 111.9195,2.2185 116.3565,6.6555 C120.7935,11.0925 123.012,18.36 123.012,28.458 C123.012,38.556 120.7935,45.8235 116.3565,50.2605 C111.9195,54.6975 104.652,56.916 94.554,56.916 Z M226.746,132.192 C240.21,132.192 249.849,129.2085 255.663,123.2415 C261.477,117.2745 264.384,107.6355 264.384,94.3245 C264.384,81.0135 261.477,71.451 255.663,65.637 C249.849,59.823 240.21,56.916 226.746,56.916 C216.648,56.916 209.3805,54.6975 204.9435,50.2605 C200.5065,45.8235 198.288,38.556 198.288,28.458 C198.288,18.36 200.5065,11.0925 204.9435,6.6555 C209.3805,2.2185 216.648,-5.68434189e-14 226.746,-5.68434189e-14 C236.844,-5.68434189e-14 244.1115,2.2185 248.5485,6.6555 C252.9855,11.0925 255.204,18.36 255.204,28.458 C255.204,41.616 258.111,51.1785 263.925,57.1455 C269.739,63.1125 279.378,66.096 292.842,66.096 C302.94,66.096 310.2075,68.3145 314.6445,72.7515 C319.0815,77.1885 321.3,84.456 321.3,94.554 C321.3,104.652 319.0815,111.9195 314.6445,116.3565 C310.2075,120.7935 302.94,123.012 292.842,123.012 C279.378,123.012 269.739,125.919 263.925,131.733 C258.111,137.547 255.204,147.186 255.204,160.65 C255.204,170.748 252.9855,178.0155 248.5485,182.4525 C244.1115,186.8895 236.844,189.108 226.746,189.108 C216.648,189.108 209.3805,186.8895 204.9435,182.4525 C200.5065,178.0155 198.288,170.748 198.288,160.65 C198.288,150.552 200.5065,143.2845 204.9435,138.8475 C209.3805,134.4105 216.648,132.192 226.746,132.192 Z M182.223,50.49 C177.939,54.774 170.748,56.916 160.65,56.916 C150.552,56.916 143.2845,54.6975 138.8475,50.2605 C134.4105,45.8235 132.192,38.556 132.192,28.458 C132.192,18.36 134.4105,11.0925 138.8475,6.6555 C143.2845,2.2185 150.552,-5.68434189e-14 160.65,-5.68434189e-14 C170.748,-5.68434189e-14 178.0155,2.2185 182.4525,6.6555 C186.8895,11.0925 189.108,18.36 189.108,28.458 C189.108,38.556 186.813,45.9 182.223,50.49 Z M270.81,139.077 C275.4,134.487 282.744,132.192 292.842,132.192 C302.94,132.192 310.2075,134.4105 314.6445,138.8475 C319.0815,143.2845 321.3,150.552 321.3,160.65 C321.3,170.748 319.0815,178.0155 314.6445,182.4525 C310.2075,186.8895 302.94,189.108 292.842,189.108 C279.378,189.108 269.739,192.015 263.925,197.829 C258.111,203.643 255.204,213.282 255.204,226.746 C255.204,236.844 252.9855,244.1115 248.5485,248.5485 C244.1115,252.9855 236.844,255.204 226.746,255.204 C213.282,255.204 203.643,258.111 197.829,263.925 C192.015,269.739 189.108,279.378 189.108,292.842 C189.108,302.94 186.8895,310.2075 182.4525,314.6445 C178.0155,319.0815 170.748,321.3 160.65,321.3 C150.552,321.3 143.2845,319.0815 138.8475,314.6445 C134.4105,310.2075 132.192,302.94 132.192,292.842 C132.192,282.744 134.4105,275.4765 138.8475,271.0395 C143.2845,266.6025 150.552,264.384 160.65,264.384 C174.114,264.384 183.753,261.477 189.567,255.663 C195.381,249.849 198.288,240.21 198.288,226.746 C198.288,213.282 195.381,203.643 189.567,197.829 C183.753,192.015 174.114,189.108 160.65,189.108 C150.552,189.108 143.2845,186.8895 138.8475,182.4525 C134.4105,178.0155 132.192,170.748 132.192,160.65 C132.192,150.552 134.4105,143.2845 138.8475,138.8475 C143.2845,134.4105 150.552,132.192 160.65,132.192 C170.748,132.192 178.0155,134.4105 182.4525,138.8475 C186.8895,143.2845 189.108,150.552 189.108,160.65 C189.108,173.808 192.015,183.3705 197.829,189.3375 C203.643,195.3045 213.282,198.288 226.746,198.288 C240.21,198.288 249.849,195.3045 255.663,189.3375 C261.477,183.3705 264.384,173.808 264.384,160.65 C264.384,150.552 266.526,143.361 270.81,139.077 Z M72.522,271.269 C77.112,266.679 84.456,264.384 94.554,264.384 C104.652,264.384 111.9195,266.6025 116.3565,271.0395 C120.7935,275.4765 123.012,282.744 123.012,292.842 C123.012,302.94 120.7935,310.2075 116.3565,314.6445 C111.9195,319.0815 104.652,321.3 94.554,321.3 C84.456,321.3 77.1885,319.0815 72.7515,314.6445 C68.3145,310.2075 66.096,302.94 66.096,292.842 C66.096,282.744 68.238,275.553 72.522,271.269 Z" id="Shape"></path>
        </g>
    </g>
</svg>