<?xml version="1.0" encoding="UTF-8"?>
<svg viewBox="0 0 800 800" version="1.1" xmlns="http://www.w3.org/2000/svg" xmlns:xlink="http://www.w3.org/1999/xlink">
    <title>7</title>
    <g id="7" stroke="none" stroke-width="1" fill="none" fill-rule="evenodd">
        <path d="M198.987863,86.0445892 L601.012137,86.0445892 C663.388985,86.0445892 713.955411,136.611015 713.955411,198.987863 L713.955411,601.012137 C713.955411,663.388985 663.388985,713.955411 601.012137,713.955411 L198.987863,713.955411 C136.611015,713.955411 86.0445892,663.388985 86.0445892,601.012137 L86.0445892,198.987863 C86.0445892,136.611015 136.611015,86.0445892 198.987863,86.0445892 Z" id="Rectangle" fill="#FAFFF6" transform="translate(400, 400) rotate(-45) translate(-400, -400)"></path>
        <g transform="translate(239.35, 231.7)" fill="#222222" fill-rule="nonzero" id="Shape">
            <path d="M116.127,50.49 C111.843,54.774 104.652,56.916 94.554,56.916 C84.456,56.916 77.1885,54.6975 72.7515,50.2605 C68.3145,45.8235 66.096,38.6325 66.096,28.6875 C66.096,18.7425 68.3145,11.475 72.7515,6.885 C77.1885,2.295 84.456,-5.68434189e-14 94.554,-5.68434189e-14 C104.652,-5.68434189e-14 111.9195,2.295 116.3565,6.885 C120.7935,11.475 123.012,18.7425 123.012,28.6875 C123.012,38.6325 120.717,45.9 116.127,50.49 Z M6.426,6.885 C11.016,2.295 18.36,-5.68434189e-14 28.458,-5.68434189e-14 C38.556,-5.68434189e-14 45.8235,2.295 50.2605,6.885 C54.6975,11.475 56.916,18.7425 56.916,28.6875 C56.916,38.6325 54.6975,45.8235 50.2605,50.2605 C45.8235,54.6975 38.556,56.916 28.458,56.916 C18.36,56.916 11.0925,54.6975 6.6555,50.2605 C2.2185,45.8235 0,38.6325 0,28.6875 C0,18.7425 2.142,11.475 6.426,6.885 Z M248.319,50.49 C244.035,54.774 236.844,56.916 226.746,56.916 C216.648,56.916 209.3805,54.6975 204.9435,50.2605 C200.5065,45.8235 198.288,38.6325 198.288,28.6875 C198.288,18.7425 200.5065,11.475 204.9435,6.885 C209.3805,2.295 216.648,-5.68434189e-14 226.746,-5.68434189e-14 C236.844,-5.68434189e-14 244.1115,2.295 248.5485,6.885 C252.9855,11.475 255.204,18.7425 255.204,28.6875 C255.204,38.6325 252.909,45.9 248.319,50.49 Z M292.842,-5.68434189e-14 C302.94,-5.68434189e-14 310.2075,2.295 314.6445,6.885 C319.0815,11.475 321.3,18.7425 321.3,28.6875 C321.3,38.6325 319.0815,45.8235 314.6445,50.2605 C310.2075,54.6975 302.94,56.916 292.842,56.916 C279.378,56.916 269.739,59.8995 263.925,65.8665 C258.111,71.8335 255.204,81.396 255.204,94.554 C255.204,104.652 252.9855,111.9195 248.5485,116.3565 C244.1115,120.7935 236.844,123.012 226.746,123.012 C213.282,123.012 203.643,125.9955 197.829,131.9625 C192.015,137.9295 189.108,147.492 189.108,160.65 C189.108,170.748 186.8895,178.0155 182.4525,182.4525 C178.0155,186.8895 170.748,189.108 160.65,189.108 C147.186,189.108 137.547,192.0915 131.733,198.0585 C125.919,204.0255 123.012,213.588 123.012,226.746 C123.012,236.844 120.7935,244.1115 116.3565,248.5485 C111.9195,252.9855 104.652,255.204 94.554,255.204 C84.456,255.204 77.1885,252.9855 72.7515,248.5485 C68.3145,244.1115 66.096,236.9205 66.096,226.9755 C66.096,217.0305 68.3145,209.8395 72.7515,205.4025 C77.1885,200.9655 84.456,198.747 94.554,198.747 C107.712,198.747 117.2745,195.7635 123.2415,189.7965 C129.2085,183.8295 132.192,174.114 132.192,160.65 C132.192,150.858 134.4105,143.7435 138.8475,139.3065 C143.2845,134.8695 150.552,132.651 160.65,132.651 C174.114,132.651 183.753,129.6675 189.567,123.7005 C195.381,117.7335 198.288,108.0945 198.288,94.7835 C198.288,81.4725 195.381,71.8335 189.567,65.8665 C183.753,59.8995 174.114,56.916 160.65,56.916 C150.552,56.916 143.2845,54.6975 138.8475,50.2605 C134.4105,45.8235 132.192,38.6325 132.192,28.6875 C132.192,18.7425 134.4105,11.475 138.8475,6.885 C143.2845,2.295 150.552,-5.68434189e-14 160.65,-5.68434189e-14 C170.748,-5.68434189e-14 178.0155,2.295 182.4525,6.885 C186.8895,11.475 189.108,18.666 189.108,28.458 C189.108,41.922 192.015,51.6375 197.829,57.6045 C203.643,63.5715 213.282,66.555 226.746,66.555 C240.21,66.555 249.849,63.5715 255.663,57.6045 C261.477,51.6375 264.384,41.922 264.384,28.458 C264.384,18.666 266.6025,11.475 271.0395,6.885 C275.4765,2.295 282.744,-5.68434189e-14 292.842,-5.68434189e-14 Z M72.522,271.728 C77.112,267.138 84.456,264.843 94.554,264.843 C104.652,264.843 111.9195,267.0615 116.3565,271.4985 C120.7935,275.9355 123.012,283.1265 123.012,293.0715 C123.012,303.0165 120.7935,310.2075 116.3565,314.6445 C111.9195,319.0815 104.652,321.3 94.554,321.3 C84.456,321.3 77.1885,319.0815 72.7515,314.6445 C68.3145,310.2075 66.096,303.0165 66.096,293.0715 C66.096,283.1265 68.238,276.012 72.522,271.728 Z"></path>
        </g>
    </g>
</svg>