<?xml version="1.0" encoding="UTF-8"?>
<svg width="800px" height="800px" viewBox="0 0 800 800" version="1.1" xmlns="http://www.w3.org/2000/svg" xmlns:xlink="http://www.w3.org/1999/xlink">
    <title>8</title>
    <g id="8" stroke="none" stroke-width="1" fill="none" fill-rule="evenodd">
        <path d="M198.987863,86.0445892 L601.012137,86.0445892 C663.388985,86.0445892 713.955411,136.611015 713.955411,198.987863 L713.955411,601.012137 C713.955411,663.388985 663.388985,713.955411 601.012137,713.955411 L198.987863,713.955411 C136.611015,713.955411 86.0445892,663.388985 86.0445892,601.012137 L86.0445892,198.987863 C86.0445892,136.611015 136.611015,86.0445892 198.987863,86.0445892 Z" id="Rectangle" fill="#FAFFF6" transform="translate(400, 400) rotate(-45) translate(-400, -400)"></path>
        <g transform="translate(239.1205, 231.7)" fill="#222222" fill-rule="nonzero" id="Shape">
            <path d="M94.554,56.916 C81.09,56.916 71.451,59.8995 65.637,65.8665 C59.823,71.8335 56.916,81.4725 56.916,94.7835 C56.916,108.0945 59.823,117.7335 65.637,123.7005 C71.451,129.6675 81.09,132.651 94.554,132.651 C104.652,132.651 111.9195,134.8695 116.3565,139.3065 C120.7935,143.7435 123.012,150.9345 123.012,160.8795 C123.012,170.8245 120.7935,178.0155 116.3565,182.4525 C111.9195,186.8895 104.652,189.108 94.554,189.108 C81.09,189.108 71.451,192.0915 65.637,198.0585 C59.823,204.0255 56.916,213.6645 56.916,226.9755 C56.916,240.2865 59.823,249.9255 65.637,255.8925 C71.451,261.8595 81.09,264.843 94.554,264.843 C104.652,264.843 111.9195,267.0615 116.3565,271.4985 C120.7935,275.9355 123.012,283.1265 123.012,293.0715 C123.012,303.0165 120.7935,310.2075 116.3565,314.6445 C111.9195,319.0815 104.652,321.3 94.554,321.3 C84.456,321.3 77.1885,319.0815 72.7515,314.6445 C68.3145,310.2075 66.096,302.94 66.096,292.842 C66.096,279.684 63.1125,270.1215 57.1455,264.1545 C51.1785,258.1875 41.616,255.204 28.458,255.204 C18.36,255.204 11.0925,252.9855 6.6555,248.5485 C2.2185,244.1115 0,236.9205 0,226.9755 C0,217.0305 2.2185,209.8395 6.6555,205.4025 C11.0925,200.9655 18.36,198.747 28.458,198.747 C41.616,198.747 51.1785,195.7635 57.1455,189.7965 C63.1125,183.8295 66.096,174.1905 66.096,160.8795 C66.096,147.5685 63.1125,137.9295 57.1455,131.9625 C51.1785,125.9955 41.616,123.012 28.458,123.012 C18.36,123.012 11.0925,120.7935 6.6555,116.3565 C2.2185,111.9195 0,104.7285 0,94.7835 C0,84.8385 2.2185,77.6475 6.6555,73.2105 C11.0925,68.7735 18.36,66.555 28.458,66.555 C41.616,66.555 51.1785,63.5715 57.1455,57.6045 C63.1125,51.6375 66.096,41.922 66.096,28.458 C66.096,18.666 68.3145,11.475 72.7515,6.885 C77.1885,2.295 84.456,-5.68434189e-14 94.554,-5.68434189e-14 C104.652,-5.68434189e-14 111.9195,2.295 116.3565,6.885 C120.7935,11.475 123.012,18.7425 123.012,28.6875 C123.012,38.6325 120.7935,45.8235 116.3565,50.2605 C111.9195,54.6975 104.652,56.916 94.554,56.916 Z M255.204,95.013 C255.204,104.805 252.9855,111.9195 248.5485,116.3565 C244.1115,120.7935 236.844,123.012 226.746,123.012 C213.282,123.012 203.643,125.9955 197.829,131.9625 C192.015,137.9295 189.108,147.492 189.108,160.65 C189.108,170.748 186.8895,178.0155 182.4525,182.4525 C178.0155,186.8895 170.748,189.108 160.65,189.108 C150.552,189.108 143.2845,186.8895 138.8475,182.4525 C134.4105,178.0155 132.192,170.8245 132.192,160.8795 C132.192,150.9345 134.4105,143.7435 138.8475,139.3065 C143.2845,134.8695 150.552,132.651 160.65,132.651 C174.114,132.651 183.753,129.6675 189.567,123.7005 C195.381,117.7335 198.288,108.0945 198.288,94.7835 C198.288,81.4725 195.381,71.8335 189.567,65.8665 C183.753,59.8995 174.114,56.916 160.65,56.916 C150.552,56.916 143.2845,54.6975 138.8475,50.2605 C134.4105,45.8235 132.192,38.6325 132.192,28.6875 C132.192,18.7425 134.4105,11.475 138.8475,6.885 C143.2845,2.295 150.552,-5.68434189e-14 160.65,-5.68434189e-14 C170.748,-5.68434189e-14 178.0155,2.295 182.4525,6.885 C186.8895,11.475 189.108,18.666 189.108,28.458 C189.108,41.922 192.015,51.6375 197.829,57.6045 C203.643,63.5715 213.282,66.555 226.746,66.555 C236.844,66.555 244.1115,68.7735 248.5485,73.2105 C252.9855,77.6475 255.204,84.915 255.204,95.013 Z M138.618,271.728 C143.208,267.138 150.552,264.843 160.65,264.843 C170.748,264.843 178.0155,267.0615 182.4525,271.4985 C186.8895,275.9355 189.108,283.1265 189.108,293.0715 C189.108,303.0165 186.8895,310.2075 182.4525,314.6445 C178.0155,319.0815 170.748,321.3 160.65,321.3 C150.552,321.3 143.2845,319.0815 138.8475,314.6445 C134.4105,310.2075 132.192,303.0165 132.192,293.0715 C132.192,283.1265 134.334,276.012 138.618,271.728 Z M292.842,198.747 C302.94,198.747 310.2075,200.9655 314.6445,205.4025 C319.0815,209.8395 321.3,217.0305 321.3,226.9755 C321.3,236.9205 319.0815,244.1115 314.6445,248.5485 C310.2075,252.9855 302.94,255.204 292.842,255.204 C279.378,255.204 269.739,258.1875 263.925,264.1545 C258.111,270.1215 255.204,279.684 255.204,292.842 C255.204,302.94 252.9855,310.2075 248.5485,314.6445 C244.1115,319.0815 236.844,321.3 226.746,321.3 C216.648,321.3 209.3805,319.0815 204.9435,314.6445 C200.5065,310.2075 198.288,303.0165 198.288,293.0715 C198.288,283.1265 200.5065,275.9355 204.9435,271.4985 C209.3805,267.0615 216.648,264.843 226.746,264.843 C240.21,264.843 249.849,261.8595 255.663,255.8925 C261.477,249.9255 264.384,240.2865 264.384,226.9755 C264.384,213.6645 261.477,204.0255 255.663,198.0585 C249.849,192.0915 240.21,189.108 226.746,189.108 C216.648,189.108 209.3805,186.8895 204.9435,182.4525 C200.5065,178.0155 198.288,170.8245 198.288,160.8795 C198.288,150.9345 200.5065,143.7435 204.9435,139.3065 C209.3805,134.8695 216.648,132.651 226.746,132.651 C236.844,132.651 244.1115,134.8695 248.5485,139.3065 C252.9855,143.7435 255.204,150.858 255.204,160.65 C255.204,174.114 258.111,183.8295 263.925,189.7965 C269.739,195.7635 279.378,198.747 292.842,198.747 Z"></path>
        </g>
    </g>
</svg>