<?xml version="1.0" encoding="UTF-8"?>
<svg width="200px" height="200px" viewBox="0 0 200 200" version="1.1" xmlns="http://www.w3.org/2000/svg" xmlns:xlink="http://www.w3.org/1999/xlink">
    <title>done</title>
    <g id="done" stroke="none" stroke-width="1" fill="none" fill-rule="evenodd">
        <path d="M100,0 C155.228475,0 200,44.771525 200,100 C200,155.228475 155.228475,200 100,200 C44.771525,200 0,155.228475 0,100 C0,44.771525 44.771525,0 100,0 Z M148.65533,58.8519565 C147.134623,57.3312498 144.669071,57.3312498 143.148364,58.8519565 L89.914797,112.085867 L56.7181225,78.8887972 C55.1974158,77.3680906 52.7318631,77.3680906 51.2111564,78.8887972 L41.0889091,89.0110445 C39.5682024,90.5317512 39.5682024,92.9973039 41.0889091,94.5180106 L87.1417814,140.570883 C88.5643549,141.993456 90.8137646,142.085257 92.3431856,140.846373 L92.5059961,140.721738 C92.6128289,140.635405 92.7161591,140.542588 92.8154604,140.443287 L158.777577,74.4811699 C160.298284,72.9604632 160.298284,70.4949105 158.777577,68.9742038 Z" id="Combined-Shape" fill="#000000"></path>
    </g>
</svg>