<?xml version="1.0" encoding="UTF-8"?>
<svg width="200px" height="200px" viewBox="0 0 200 200" version="1.1" xmlns="http://www.w3.org/2000/svg" xmlns:xlink="http://www.w3.org/1999/xlink">
    <title>done</title>
    <g id="done" stroke="none" stroke-width="1" fill="none" fill-rule="evenodd">
        <path d="M100,0 C155.228475,0 200,44.771525 200,100 C200,155.228475 155.228475,200 100,200 C44.771525,200 0,155.228475 0,100 C0,44.771525 44.771525,0 100,0 Z M162.493494,47.2469517 C160.540873,45.2943302 157.375048,45.2943302 155.422426,47.2469517 L87.0693339,115.600486 L44.44406,72.9747041 C42.4914386,71.0220826 39.3256137,71.0220826 37.3729922,72.9747041 L24.3758,85.9718963 C22.4231785,87.9245178 22.4231785,91.0903427 24.3758,93.0429641 L83.5087197,152.175884 C85.3353359,154.0025 88.2236284,154.120374 90.1874392,152.52962 L90.3964915,152.369585 C90.5336673,152.258732 90.6663455,152.139553 90.7938507,152.012047 L175.490686,67.3152117 C177.443308,65.3625903 177.443308,62.1967654 175.490686,60.2441439 Z" id="Combined-Shape" fill="#000000"></path>
    </g>
</svg>