<?xml version="1.0" encoding="UTF-8"?>
<svg width="200px" height="200px" viewBox="0 0 200 200" version="1.1" xmlns="http://www.w3.org/2000/svg" xmlns:xlink="http://www.w3.org/1999/xlink">
    <title>muted</title>
    <g id="muted" stroke="none" stroke-width="1" fill="none" fill-rule="evenodd">
        <g id="Group" transform="translate(8, 16)" fill="#000000">
            <rect id="Rectangle" x="0" y="48.0855533" width="59.6573134" height="71.3684519" rx="2.76491794"></rect>
            <path d="M46.353657,24.7923616 L146.055835,24.625435 C149.109875,24.6203218 151.589808,27.091965 151.594922,30.1460048 C151.597383,31.6158149 151.014592,33.0261334 149.975278,34.0654476 L50.1061732,133.934552 C47.9466379,136.094088 44.4453395,136.094088 42.2858043,133.934552 C41.2464901,132.895238 40.6636998,131.48492 40.6661606,130.01511 L40.8330872,30.3129314 C40.8381883,27.2661203 43.3068459,24.7974627 46.353657,24.7923616 Z" id="Rectangle-Copy" transform="translate(100.0407, 84) rotate(-45) translate(-100.0407, -84)"></path>
            <path d="M165.450815,53.2331903 C169.035066,49.6369175 174.846285,49.6369175 178.430535,53.2331903 C181.973588,56.7881266 182.014313,62.5264292 178.55271,66.1315579 L178.430535,66.2564461 L135.589166,109.24151 C132.004916,112.837783 126.193697,112.837783 122.609446,109.24151 C119.066394,105.686574 119.025669,99.9482713 122.487272,96.3431426 L122.609446,96.2182544 L165.450815,53.2331903 Z" id="Line" fill-rule="nonzero"></path>
            <path d="M122.461717,53.084966 C126.00477,49.5300296 131.72389,49.4891683 135.316967,52.962382 L135.441438,53.084966 L178.578264,96.3664787 C182.162515,99.9627515 182.162515,105.793462 178.578264,109.389735 C175.035212,112.944671 169.316092,112.985532 165.723015,109.512319 L165.598544,109.389735 L122.461717,66.1082218 C118.877467,62.511949 118.877467,56.6812388 122.461717,53.084966 Z" id="Line" fill-rule="nonzero"></path>
        </g>
    </g>
</svg>