<?xml version="1.0" encoding="UTF-8"?>
<svg width="200px" height="200px" viewBox="0 0 200 200" version="1.1" xmlns="http://www.w3.org/2000/svg" xmlns:xlink="http://www.w3.org/1999/xlink">
    <title>next</title>
    <g id="next" stroke="none" stroke-width="1" fill="none" fill-rule="evenodd">
        <path d="M86.5565933,27.252348 C87.6656181,27.252348 88.7485832,27.5885902 89.6625885,28.2167066 L186.813816,94.9803027 C189.309976,96.6956965 189.942912,100.109835 188.227518,102.605995 C187.846887,103.159871 187.367692,103.639067 186.813816,104.019697 L89.6625885,170.783293 C87.1664286,172.498687 83.7522898,171.865751 82.036896,169.369591 C81.4087796,168.455586 81.0725373,167.372621 81.0725373,166.263596 L81.072,124.999348 L29,125 C25.6862915,125 23,122.313708 23,119 L23,81 C23,77.6862915 25.6862915,75 29,75 L81.072,74.999348 L81.0725373,32.7364039 C81.0725373,29.7076435 83.5278328,27.252348 86.5565933,27.252348 Z" id="Path" fill="#000000"></path>
    </g>
</svg>