<?xml version="1.0" encoding="UTF-8"?>
<svg width="200px" height="200px" viewBox="0 0 200 200" version="1.1" xmlns="http://www.w3.org/2000/svg" xmlns:xlink="http://www.w3.org/1999/xlink">
    <title>next</title>
    <g id="next" stroke="none" stroke-width="1" fill="none" fill-rule="evenodd">
        <path d="M80.5565933,27.252348 C81.6656181,27.252348 82.7485832,27.5885902 83.6625885,28.2167066 L180.813816,94.9803027 C183.309976,96.6956965 183.942912,100.109835 182.227518,102.605995 C181.846887,103.159871 181.367692,103.639067 180.813816,104.019697 L83.6625885,170.783293 C81.1664286,172.498687 77.7522898,171.865751 76.036896,169.369591 C75.4087796,168.455586 75.0725373,167.372621 75.0725373,166.263596 L75.072,124.999348 L23,125 C19.6862915,125 17,122.313708 17,119 L17,81 C17,77.6862915 19.6862915,75 23,75 L75.072,74.999348 L75.0725373,32.7364039 C75.0725373,29.7076435 77.5278328,27.252348 80.5565933,27.252348 Z" id="Path" fill="#000000"></path>
    </g>
</svg>