<?xml version="1.0" encoding="UTF-8"?>
<svg width="200px" height="200px" viewBox="0 0 200 200" version="1.1" xmlns="http://www.w3.org/2000/svg" xmlns:xlink="http://www.w3.org/1999/xlink">
    <title>pin</title>
    <g id="pin" stroke="none" stroke-width="1" fill="none" fill-rule="evenodd">
        <path d="M78.8347916,131.961875 C78.0571845,133.052635 77.7101664,133.728891 77.1952106,134.234889 C62.4779812,148.682088 47.9183426,163.29676 32.9340843,177.462319 C26.2118021,183.816732 18.7047496,189.357649 11.3970733,195.066437 C9.35356641,196.662399 6.83370549,197.761115 4.38189513,198.691563 C1.8071162,199.668155 0.368105288,198.236483 1.26987485,195.654381 C2.0041047,193.552421 3.0117307,191.488251 4.22748799,189.621786 C10.5888236,179.857058 18.3095787,171.168769 26.3602399,162.816619 C39.3376033,149.35357 52.5907505,136.155056 65.7372454,122.85391 C66.2458339,122.339559 66.8547074,121.924258 67.4325404,121.449288 C53.8833134,107.921398 40.5704727,94.6294022 27.201918,81.2817144 C29.5040967,76.2662871 33.2727453,73.651566 38.3797218,72.8074403 C43.7799923,71.9147833 48.8742342,73.6523616 54.0763224,74.585196 C60.3222505,75.7049952 66.5785256,76.9282216 72.8853411,77.5010496 C79.2140442,78.0758666 84.5625804,75.6238446 89.0698364,70.9636502 C97.0448858,62.7177117 105.072068,54.5024035 113.443084,46.6642072 C118.44301,41.9825317 120.738423,36.4324649 120.677536,29.8946677 C120.634955,25.3637574 120.087764,20.7946585 119.296229,16.3258046 C118.466887,11.6417424 119.255637,7.40042844 122.020639,3.70926806 C124.717989,0.108009853 130.005638,-0.995877425 134.32466,0.949748765 C136.214954,1.80143261 138.062268,3.03380839 139.531126,4.49372417 C158.251798,23.1022802 176.905614,41.7780639 195.561419,60.4518587 C198.652746,63.5463233 200.611886,67.1758251 199.82632,71.6948015 C198.624093,78.6085171 191.381284,82.5168748 183.777528,80.6066525 C176.929491,78.8861796 170.024149,78.6709713 163.112838,80.2939839 C160.069664,81.0088255 157.510803,82.5423338 155.294981,84.774374 C146.744088,93.3870815 138.32094,102.139018 129.497447,110.465312 C123.494272,116.129546 121.519612,122.903635 122.65538,130.642382 C123.778811,138.296001 125.528626,145.857728 126.981964,153.463611 C127.701469,157.226375 127.770316,160.966464 126.444722,164.639326 C125.322087,167.748907 123.345835,170.138077 120.554169,171.910263 C119.431534,172.622718 118.716804,172.567822 117.709178,171.553041 C105.325964,159.082099 92.8806684,146.672814 80.4676074,134.231706 C79.9578251,133.720935 79.6084192,133.049851 78.8347916,131.961875" id="Fill-4" fill="#000000" transform="translate(100.5, 99.5) rotate(-360) translate(-100.5, -99.5)"></path>
    </g>
</svg>