<?xml version="1.0" encoding="UTF-8"?>
<svg width="200px" height="200px" viewBox="0 0 200 200" version="1.1" xmlns="http://www.w3.org/2000/svg" xmlns:xlink="http://www.w3.org/1999/xlink">
    <title>rewind</title>
    <g id="rewind" stroke="none" stroke-width="1" fill="none" fill-rule="evenodd">
        <path d="M170.687785,102.940761 L96.729692,153.765731 C94.829446,155.071605 92.2303724,154.589771 90.9244985,152.689525 C90.4463337,151.993722 90.1903633,151.169296 90.1903633,150.325031 L90.1903633,48.6750911 C90.1903633,46.3693935 92.0595005,44.5002563 94.3651981,44.5002563 C95.2094629,44.5002563 96.0338892,44.7562267 96.729692,45.2343915 L170.687785,96.0593616 C172.588031,97.3652355 173.069864,99.9643091 171.76399,101.864555 C171.474229,102.286203 171.109432,102.650999 170.687785,102.940761 Z" id="Rectangle-Copy-2" fill="#000000" transform="translate(131.3444, 99.5003) rotate(-180) translate(-131.3444, -99.5003)"></path>
        <path d="M108.263832,102.940761 L34.3057395,153.765731 C32.4054935,155.071605 29.8064199,154.589771 28.500546,152.689525 C28.0223812,151.993722 27.7664109,151.169296 27.7664109,150.325031 L27.7664109,48.6750911 C27.7664109,46.3693935 29.635548,44.5002563 31.9412456,44.5002563 C32.7855104,44.5002563 33.6099367,44.7562267 34.3057395,45.2343915 L108.263832,96.0593616 C110.164078,97.3652355 110.645912,99.9643091 109.340038,101.864555 C109.050276,102.286203 108.68548,102.650999 108.263832,102.940761 Z" id="Rectangle-Copy-3" fill="#000000" transform="translate(68.9205, 99.5003) rotate(-180) translate(-68.9205, -99.5003)"></path>
    </g>
</svg>