<?xml version="1.0" encoding="UTF-8"?>
<svg width="200px" height="200px" viewBox="0 0 200 200" version="1.1" xmlns="http://www.w3.org/2000/svg" xmlns:xlink="http://www.w3.org/1999/xlink">
    <title>unmuted</title>
    <g id="unmuted" stroke="none" stroke-width="1" fill="none" fill-rule="evenodd">
        <g id="Group-2" transform="translate(9, 17.0101)" fill="#000000">
            <rect id="Rectangle" x="0" y="47.7935261" width="59.4171791" height="70.9350259" rx="2.74202799"></rect>
            <path d="M46.1548984,24.5262044 L145.422518,24.4621635 C148.451278,24.4602095 150.908157,26.9139205 150.910111,29.9426804 C150.91105,31.3983682 150.333196,32.7947046 149.303869,33.8240315 L49.9722086,133.155692 C47.8305516,135.297349 44.3582394,135.297349 42.2165823,133.155692 C41.1872554,132.126365 40.6094015,130.730028 40.6103406,129.274341 L40.6743815,30.0067213 C40.6763337,26.9807244 43.1289015,24.5281566 46.1548984,24.5262044 Z" id="Rectangle-Copy" transform="translate(99.638, 83.4899) rotate(-45) translate(-99.638, -83.4899)"></path>
            <path d="M109.486769,53.0588412 C111.568136,48.4534256 116.98403,46.4094579 121.583507,48.4935116 C135.375238,54.7426364 144.429451,68.5208796 144.429451,83.947507 C144.429451,98.3967051 136.486554,111.450523 124.021878,118.191555 C119.579893,120.593828 114.034036,118.935667 111.63486,114.487947 C109.261762,110.088571 110.856186,104.607796 115.189835,102.164382 L115.333693,102.084935 C121.945231,98.5093439 126.147242,91.603515 126.147242,83.947507 C126.147242,75.8579234 121.449667,68.6284954 114.264698,65.2717287 L114.046212,65.171197 C109.446735,63.0871433 107.405403,57.6642569 109.486769,53.0588412 Z" id="Path" fill-rule="nonzero"></path>
            <path d="M117.799201,24.9830557 C119.541253,20.2385276 124.794706,17.8063633 129.533116,19.5506645 C156.3882,29.4365451 174.595096,54.976591 174.595096,83.947507 C174.595096,111.754199 157.819768,136.476308 132.542082,147.155656 C127.890684,149.120784 122.528984,146.938264 120.56639,142.280861 C118.624898,137.673537 120.737105,132.370207 125.285713,130.354273 L125.434899,130.289707 C144.011927,122.441261 156.312887,104.31311 156.312887,83.947507 C156.312887,62.9420469 143.224055,44.3714008 123.814678,36.9534831 L123.224587,36.7321205 C118.486177,34.9878192 116.057149,29.7275837 117.799201,24.9830557 Z" id="Path-Copy" fill-rule="nonzero"></path>
        </g>
    </g>
</svg>